<svg viewBox="0,0,960,400" width="960" height="400" style="width: 100%; height: auto;" xmlns="http://www.w3.org/2000/svg" xmlns:xlink="http://www.w3.org/1999/xlink"><g><path d="M495.9750629861155,68.13312964025681L524.2661900345374,69.28603725490393L525.4016529050696,117.25436486948274L526.6782362808408,121.54484078568203L495.1426979437456,121.28607149450545L495.17247273779867,113.89940014325657L495.9369285214598,69.2508510204043Z" class="counties" stroke="#000" style="stroke-width: 1px; fill: none;"/><path d="M311.20539201649626,96.5739595710329L324.1822692687347,91.77649078041395L342.0138255630209,91.21463951258556L344.398829935506,102.61829687690079L340.5090530575653,115.75412599718402L333.0945623839016,125.7794077632625L330.010741832004,119.2600753954539L310.3013367741223,122.81150940299449Z" class="counties" stroke="#000" style="stroke-width: 1px; fill: none;"/><path d="M314.3435726499483,20.76314123699558L318.95328750455155,21.084711110996068L320.2259476100353,21.224860522313975L324.6473887164866,21.49245644763687L327.6826267002343,21.67472573939085L328.2423002547057,21.813471838680925L330.3627414325874,22.03048031911203L331.2402033505841,22.120150586797536L332.97478262532604,22.222622880073686L337.2178723051238,22.624425898069603L339.39563375165926,22.74227555905054L345.31793282598846,23.39442953737307L347.9045671322092,23.508459267921353L351.2202826235098,23.653327351483313L355.7381276377946,23.99438888482473L347.97786317119426,39.00854827368312L348.8072908655704,44.74751130261575L347.33822021882224,48.265538430750894L342.58065346960575,48.1058079637769L336.9664727178897,40.19827535713921L330.6811320067791,41.80810325017046L328.5864129551519,39.31601851021696L319.7705976904508,48.74595774860245L309.6702617401006,20.620101983598943Z" class="counties" stroke="#000" style="stroke-width: 1px; fill: none;"/><path d="M419.3048776289761,204.704277295039L421.7842403605882,202.8105680766712L424.69933623870565,210.0109782216332L431.08713344687385,211.28969771738593L436.3626901760963,205.29080772676025L440.3151940417356,212.06858017954073L441.1231186855439,216.16775136772594L448.2727570733732,219.76514245816725L455.6851361731642,215.65660989732896L461.20362435691095,225.62121258805928L458.7056125321378,230.379053558745L462.3459279966828,233.77426902293882L464.1297329906083,243.69741650062133L455.95839932208946,256.40811180821765L448.0985449960299,256.0688313583596L445.52356390850946,255.95601630869533L443.924764999967,255.8805141233879L440.77471239629267,255.7428627155059L438.0497925321597,255.641355584783L433.8693156372756,255.45824460663243L431.2191388977735,255.3410300810392L431.06527451046713,255.3341960461803L423.95177412163866,255.01511297598154L418.8670057470208,254.83016707495517L414.92532912186834,254.68454685480538Z" class="counties" stroke="#000" style="stroke-width: 1px; fill: none;"/><path d="M276.6473004627678,17.488315311797123L284.45082962798733,17.970248756029832L292.5808447416439,19.166791293298957L294.7407270937074,19.348356467273334L295.8038486462392,19.496502967384004L297.1278413243999,19.367818707589322L300.4168364908637,19.948691131023224L300.5450021930337,19.971301159528593L300.6076409062116,19.982323548678323L309.6702617401006,20.620101983598943L319.7705976904508,48.74595774860245L308.6766715494359,47.76540204960111L307.65313051033445,58.6473167024742L302.9736560265519,57.10099530526713L296.3328445336956,64.00741116240351L287.26733338711347,59.398228040410686L280.1166207230126,48.9810309893619L270.6198653519623,42.88904065536735L270.4456413244079,42.64230708572359L271.8525387661193,39.02972513636814L272.15232917055437,38.22504382825173L274.27346443548595,33.59122960797504L274.42607142015004,33.370210600482096L274.55266288644634,33.18686010557212L274.55576630480573,33.163218040017455L274.6445305165653,32.4852969572039L274.39018949418096,30.969360638013313L274.5469268499601,30.077407137754562L274.12844404915813,26.957506718932564L273.9375913796921,26.275610179704017L273.8718531698887,26.172685782894405L273.59909366159627,25.745532868255395L273.4383818602764,25.493827483533096L273.38238178954634,24.701580390319577L275.6922831280408,20.099692123134446L276.3564128652797,20.036843779362243L276.6569378305321,19.774150178491254L276.64526963731805,19.289207513415022L276.4725322147515,18.688978480768128L276.3759947949766,17.817814966205333Z" class="counties" stroke="#000" style="stroke-width: 1px; fill: none;"/><path d="M251.35889846364262,55.915565334044004L253.8122565186477,59.01331769138778L252.1871169942042,65.40676883513152L260.1685276398239,71.83106650130503L261.8590849937409,79.4565367539144L269.5521787978687,85.58419805409358L261.9840845499839,99.11084147579095L252.58054973856088,93.68874136030354L247.9643765723631,98.82809832188468L243.94876758539613,104.94718922757602L237.24380601064877,97.77424808841715L238.31851122975786,92.00699887063274L234.3010101488744,78.9518778159545L234.33167776294067,78.95538379657228L237.04760023241397,76.30967316497299L238.08838447851667,76.54321161124244L238.6918195726721,77.13716496123197L239.1815061737907,77.2523753990863L239.64188010684484,76.7612283183571L239.89990904550177,76.12901536971731L239.87169813139553,75.9961768710109L243.57057061646628,69.42064140866569L246.925370231329,63.452600414977496L249.78861580934972,58.75403433661813Z" class="counties" stroke="#000" style="stroke-width: 1px; fill: none;"/><path d="M775.1524966292236,138.1143311810083L796.6687312570921,137.65071590974912L802.2446726671023,148.5339714731981L815.0518853690337,156.42726745562686L812.8279509086115,161.23103544121477L801.1984801837789,162.1771918453851L807.6243097006045,178.4333010300452L799.9734290491506,180.13044374190395L801.7770313036763,185.32449859234111L799.3882332372905,198.73878375887216L777.212429268513,201.76272103909832L771.7848655112448,196.9918298164739L740.330182784237,176.08622738202212L741.4401853805412,163.01473235011326L746.4081895093623,158.42857090184407L750.8289025684353,158.48437000124432L741.2303338694619,147.8554730597225L741.4613383770866,141.47306983203816L738.7732276107708,139.54600384560763L740.8789073075259,135.1882661002728L760.7135021843042,144.5176544170372Z" class="counties" stroke="#000" style="stroke-width: 1px; fill: none;"/><path d="M735.4124596818256,68.37354916852019L787.3154181724803,67.7996556492526L784.6293787349969,80.45194631471531L792.1572858266172,96.66609802583844L790.0325951653558,106.59273600537381L783.248879718185,117.19611116735359L775.9588841262521,114.59994814528363L770.9515282610082,124.3697661150527L765.803838443886,112.99900284862451L754.8356488554746,118.72960311457791L753.5912323927296,107.60049461791277L748.5387452998093,110.09945332521602L738.7151231769622,109.3608043715758L736.3757070111496,99.46735717096453L723.7058890138578,90.98711667733915L733.7356925162858,86.81269517279543L727.1005430459991,78.70229227031086L726.4241385902114,73.46763455659311L733.0079036834377,72.61823423070928Z" class="counties" stroke="#000" style="stroke-width: 1px; fill: none;"/><path d="M563.2901739767367,253.66302277824252L605.790746566694,250.8464525815507L631.8399635706046,290.2054499715596L630.0372511445112,292.3139985742382L632.2121644687868,296.6041028552754L640.334609432206,301.7124488639038L632.1344136100051,310.32500493489897L623.7085244825048,314.64684347687216L612.3479996638744,313.46778095300033L588.6415896956532,301.3954346507635L572.086374242881,302.42003148143704L567.1710386255436,299.6917306108062L570.0861081047515,296.46576310321143L568.3170138484275,288.5567435309349L573.6401540083771,273.1268611651867Z" class="counties" stroke="#000" style="stroke-width: 1px; fill: none;"/><path d="M642.1784978728065,315.8166951641542L644.7932083147734,313.8750286727536L656.2179779857051,318.9958526255177L664.8401683124321,331.87861593522575L667.4716252637045,371.4379846091997L664.2354529771601,382.5116846882029L658.975614076222,376.85849149061505L642.032931023241,373.64052452931537L620.2307580202269,375.4254106460121L603.7500827174663,382.16381608404845L599.8767797498749,378.1678651754992L595.6309313247366,373.7809546066255L593.9550467405916,372.094353641598L591.9063248945677,370.03116474798117L594.6084772282538,366.26371803244547L592.8396317627958,361.35480768110574L601.4272476019214,354.6004941679057L602.5855906769611,343.5694784041825L606.8032683579895,340.74728727047113L615.4000155077265,344.4578321108329L620.3031008798735,335.8338545627903L632.9085752108676,334.27304386497053Z" class="counties" stroke="#000" style="stroke-width: 1px; fill: none;"/><path d="M199.87510348441538,115.099280289347L205.96222627445604,116.24482880896358L207.2729779048259,124.61455767480402L213.2728463367148,130.73424550096388L211.2272154060429,133.36969519984086L214.1501521343107,142.63094206941423L211.39599429436748,145.49356702013938L223.7991365749258,154.48379974560885L217.16913144372847,155.26487098009238L216.07598373852124,161.99036952729693L213.67340170875832,161.92529664966605L206.87232670048616,157.3141501466598L203.05800403597277,159.06982512723152L203.47231756223118,162.31159329088769L198.04843975120275,160.2421610294714L192.5533009593928,163.80446943977404L185.8671426286237,163.57243293272586L186.3447793809737,166.43980770670896L184.4500028882194,163.5247543939895L176.88947086941516,164.29007580533107L171.7497834662936,160.8437416304223L164.14132154201798,165.25492772573125L158.6100392320186,158.6725394623445L162.43252327093978,146.1012937306059L158.04158254073627,138.10679276498922L153.79939569545058,139.04829405356577L150.6496648096072,130.84538239322865L154.3092076819612,127.96817210444351L158.63728848571918,130.30833203200382L169.6052996971939,124.48380333127352L172.83145871106535,125.80141401175933L189.0438656375136,116.46809714174196Z" class="counties" stroke="#000" style="stroke-width: 1px; fill: none;"/><path d="M261.9840845499839,99.11084147579095L287.44652435728494,124.44856730684114L307.1910222212664,126.45130651755244L289.334971424174,151.91920636395298L288.99155199523557,152.50263390907458L273.0554319763596,149.82647360565716L266.69433698594366,145.29615785242277L259.4488090789964,149.89192794097107L255.08039650366118,130.69024377690948L243.164467113731,118.6656563827164L250.15652195076473,113.62927798446981L251.5986983022558,108.98712467808946L247.9643765723631,98.82809832188468L252.58054973856088,93.68874136030354Z" class="counties" stroke="#000" style="stroke-width: 1px; fill: none;"/><path d="M366.7945049145692,162.63415960413658L371.6546196527361,162.76837088871252L417.38076629759234,164.4431538356639L395.6051276030412,205.57349448543027L390.92810035654657,202.44625167890445L378.86156537098395,194.38690731691713L376.04623512468606,183.91782858686747L368.57866265925804,176.5361591410492Z" class="counties" stroke="#000" style="stroke-width: 1px; fill: none;"/><path d="M261.8590849937409,79.4565367539144L289.1392950751997,79.84440571287996L302.9309441764144,86.34316172728904L311.20539201649626,96.5739595710329L310.3013367741223,122.81150940299449L307.1910222212664,126.45130651755244L287.44652435728494,124.44856730684114L261.9840845499839,99.11084147579095L269.5521787978687,85.58419805409358Z" class="counties" stroke="#000" style="stroke-width: 1px; fill: none;"/><path d="M810.944754494576,27.33155607016306L826.6120987698177,26.99280059400553L843.1251933166368,42.69596469103817L848.0262863035732,51.52438435309341L856.0240277493886,51.53759100546995L863.0642428648425,57.427546502009136L865.5312052629051,60.39469793249191L864.1158155254161,63.86271245338321L872.4539375735585,76.37780978912633L855.7944109553337,73.9339574799451L846.2977292854048,62.69686796572387L837.6470766093462,59.42571701625093L841.2544351797424,56.304614880393274L837.638887449084,55.66775034498278L835.739320364848,49.88880100418646L833.299907058501,51.177093185815465L826.3729971641515,43.132596522227686L821.8663659944523,42.83780274118908L808.4142350817547,32.645571243730956L803.0755022392277,27.59970950295792L808.2427934701809,27.4244687632181Z" class="counties" stroke="#000" style="stroke-width: 1px; fill: none;"/><path d="M792.312804439749,231.87861245234853L799.1340837194075,226.78340332465814L800.9347298925404,229.99100050600646L814.0840922512598,228.0334900648504L817.851512772193,218.91977001748455L825.4719859099041,231.87758532133194L832.7377902402059,231.5277961658103L828.4513295672368,224.02784144464385L836.5758428948848,227.57855793246927L838.0345482964913,236.08344232185846L831.0330139696362,245.11885414828976L825.592709463921,247.44987451077395L824.1626830516088,252.9452005175226L826.8976961449771,253.90644464955585L859.1285322245785,217.7753049051953L862.7831529452214,219.82970127365297L827.3682815628617,256.62401006556684L812.6607049206632,282.55387873275686L810.9620832901692,275.17988162628353L797.3572175698464,269.3509851416038L773.2026662918288,271.2876088858811L751.5800716237518,277.4484410315563L752.0234894794612,267.8572225565349L745.4401947073748,258.57653628091794L753.3163774262612,256.0988774678499L794.7515320159819,246.49556555511117L798.6292466778959,237.78935547051333Z" class="counties" stroke="#000" style="stroke-width: 1px; fill: none;"/><path d="M536.2376940422073,30.49923624233088L534.8908577425318,69.62090220350728L524.2661900345374,69.28603725490393L495.9750629861155,68.13312964025681L498.0329009151628,30.157616593582134L502.1843326412836,30.180546343368405L502.2246968265663,30.180769215598048L504.66137873793195,30.193159327665853L504.68944793943774,30.190545199558983L506.5600229271877,30.217352505558665L515.256362836144,30.336185848769674L523.3742545005462,30.438586142190616L524.774452087484,30.45532912453018L527.9592397786291,30.44512198942175L528.9018291833927,30.441840216268247L528.9832457046577,30.445729022347223L529.9391520944428,30.45315261052201Z" class="counties" stroke="#000" style="stroke-width: 1px; fill: none;"/><path d="M333.0945623839016,125.7794077632625L338.31260274168926,135.03753451595003L344.95551597613485,136.07205139377766L352.41316507435295,147.28306072071973L348.6274870082543,156.7501989694938L289.334971424174,151.91920636395298L307.1910222212664,126.45130651755244L310.3013367741223,122.81150940299449L330.010741832004,119.2600753954539Z" class="counties" stroke="#000" style="stroke-width: 1px; fill: none;"/><path d="M549.5374662179565,119.17330889189725L560.9195959131612,118.68219928398139L552.0298069689707,152.28287940229893L560.4474773824768,155.8321836091909L554.762139765342,163.80486781061518L539.1364021435711,149.88079723737246L530.9502767466402,158.8153413783184L526.6337476479694,157.30237985494387L524.0005701514438,162.1454505608708L520.7446371323877,159.47489807305465L515.3756236500267,164.06655169920487L494.02730283491474,164.19777490208435L495.1426979437456,121.28607149450545L526.6782362808408,121.54484078568203L525.4016529050696,117.25436486948274Z" class="counties" stroke="#000" style="stroke-width: 1px; fill: none;"/><path d="M31.495529597519635,174.09185857138073L33.8556706505824,181.6885265563251L37.554164349170605,184.3449346873167L50.31058715259314,180.29012443232386L64.91803118275675,182.19477039984304L60.89065987370668,194.17259279865175L48.63710351648115,195.76180303112415L32.638622934282466,214.4948756355043L30.995055711986424,214.379394600679L30.107389812072142,214.3305531864662L19.830972828915037,213.56610555381485L18.197616965124325,213.43729076271484L11.53798039605499,212.90817359054017L7.905969682691648,212.6171048826145L0,211.97717859158183L0.5965255722330767,207.6366373900164L1.631059355706384,200.11770435309518L3.27443582354681,188.5106971080313L3.6283813967838796,186.55458718770387L4.040611985376017,183.37659293854813L12.59257175005223,176.15552378107532L13.211116312562808,177.04886016831188L13.225282311545016,177.23525051989054L13.464520853241993,177.58498712523578L13.54753357431764,178.64929121083333L17.777339677464624,179.47965211828705L17.940610616124104,179.22700566575986L18.31356541576679,179.17517065588254L19.569306278252043,179.21509135660017L19.916807716535914,179.33323149579337L23.776960375298586,179.36066717166796L24.263548558346884,179.49326823390038L24.819703782928627,179.18997108134863L25.807726847391677,178.32239189940265L25.825959474974297,178.08552442243854L26.01043081998796,177.79938173355185L26.091846696095672,177.77246152241605L26.67807694680414,177.57862445154387L30.77055804641168,174.50152894628263Z" class="counties" stroke="#000" style="stroke-width: 1px; fill: none;"/><path d="M788.1322735431149,60.97443174422915L802.0701463727019,53.49227190952297L799.399802361444,68.19446401045025L801.7772335608006,84.94599933718564L818.5337481471452,88.97941395653106L808.2231963284939,98.29657944921382L801.33778964472,98.25825667515346L797.6046891863589,94.3747921651102L792.1572858266172,96.66609802583844L784.6293787349969,80.45194631471531L787.3154181724803,67.7996556492526Z" class="counties" stroke="#000" style="stroke-width: 1px; fill: none;"/><path d="M60.89065987370668,194.17259279865175L69.62500301040745,194.6220200811149L82.73543278821307,216.69833287585607L86.57319842851575,217.3291592409605L79.75547440564878,217.0216551151534L72.43805560664441,216.59810301658035L72.4385686942478,217.32496015678225L61.73042385313602,216.4988388584734L59.022762492362745,216.28746703961406L55.98590372213221,216.10138915709103L54.03479858297396,215.98114156698102L50.63514735028366,215.77044873973136L39.73869188529534,214.98957001298004L32.638622934282466,214.4948756355043L48.63710351648115,195.76180303112415Z" class="counties" stroke="#000" style="stroke-width: 1px; fill: none;"/><path d="M288.99155199523557,152.50263390907458L292.06693284525136,155.05702621989258L297.16167965024397,171.81919406649467L307.37492624200786,183.874631600449L307.46629423007107,190.59863604392012L311.1509079475436,193.25653069699183L310.1663136957486,205.9467795441451L306.1548851641128,205.6102213983777L297.68601518348623,204.87991932228215L297.2695211855862,204.84375662641287L296.33561005716547,204.7617216200706L295.6127480111554,204.69809940587038L293.0196246119667,204.46931201026018L292.92997187076435,204.47505093711334L287.8730852932222,204.0509961025109L287.55202472530254,204.02396579717424L286.6645296758106,203.94916208604627L284.70294734688287,203.7834559041621L283.87100926873427,203.7130375368888L273.3267948234825,202.7279233991958L269.9311025523366,202.4074622388125L269.3977641700603,202.36597244858604L267.5759746182066,202.22394912214259L264.56404446650777,201.98820181374322L271.59651064282843,179.02751777906087L273.0554319763596,149.82647360565716Z" class="counties" stroke="#000" style="stroke-width: 1px; fill: none;"/><path d="M632.1344136100051,310.32500493489897L638.0850922945174,316.41872456801684L642.1784978728065,315.8166951641542L632.9085752108676,334.27304386497053L620.3031008798735,335.8338545627903L615.4000155077265,344.4578321108329L606.8032683579895,340.74728727047113L602.5855906769611,343.5694784041825L601.4272476019214,354.6004941679057L592.8396317627958,361.35480768110574L594.6084772282538,366.26371803244547L591.9063248945677,370.03116474798117L591.5919370660049,369.71444089257056L585.4374985120085,363.464905821058L585.2134352136036,363.1982522003527L576.5252172363544,354.3057898017032L570.8312093418372,348.4624159841205L567.678414865084,345.22151541239873L562.297643339778,339.7310702830291L555.3871068932749,332.66352109173204L553.4658809684024,330.6953259330967L546.5836221003028,323.6334711082509L552.97752548075,316.6542812590851L552.7917322341418,312.8301768111087L557.1676273887024,310.81779059633845L558.012377689698,304.9178774413358L567.1710386255436,299.6917306108062L572.086374242881,302.42003148143704L588.6415896956532,301.3954346507635L612.3479996638744,313.46778095300033L623.7085244825048,314.64684347687216Z" class="counties" stroke="#000" style="stroke-width: 1px; fill: none;"/><path d="M719.702272046663,186.70677774305477L723.606898552318,188.2166215078778L729.5007212103483,181.42805960366059L733.7040396453649,185.13919696189623L740.330182784237,176.08622738202212L771.7848655112448,196.9918298164739L762.6080393124412,210.05693054442054L768.334029687021,216.24560592678972L765.2037917688358,224.86409198796537L781.1337355837932,235.98872498922356L792.312804439749,231.87861245234853L798.6292466778959,237.78935547051333L794.7515320159819,246.49556555511117L753.3163774262612,256.0988774678499L757.4591572115787,251.80915224116688L750.9669644843616,252.43371529585238L749.715396720625,220.81679256995812L743.1117211535129,223.27981884882865L741.9107885037029,220.0269114789644L711.4559352076849,201.3498253637772L716.3757320116874,197.32322720655247L713.7371426602786,192.10755093320768L715.5333429019847,188.10206198583182Z" class="counties" stroke="#000" style="stroke-width: 1px; fill: none;"/><path d="M542.2472311730235,206.8683003750957L564.5353109951866,202.06466980184086L573.5424745561068,197.3398189344025L592.066210692441,200.0115103352582L589.0986534745261,206.2965864196649L590.0586177767927,216.9001366168086L586.6679237411572,220.9589761753159L589.6343099683872,232.9618300466991L605.790746566694,250.8464525815507L563.2901739767367,253.66302277824252L558.870106642371,244.59094741650551L549.0774546903758,238.08949881197077L542.95138915391,225.7632453003789L542.1102145121858,209.2416803872402Z" class="counties" stroke="#000" style="stroke-width: 1px; fill: none;"/><path d="M869.804530472682,25.73638193682382L872.5986752932149,25.64911241223308L883.9084099722859,66.74479161876116L881.7544903565049,67.3631898777694L876.080727965189,57.37829968339611L874.8820405635233,43.10669882070215L869.5497360284426,34.65827821321545L856.6952790666637,32.62554296903909L858.1167248317906,39.50957358729465L863.4312017460779,43.275194786172506L867.3833969151838,42.043216330654104L867.7289048064049,50.336327137076296L874.6324582787238,60.6732005812155L882.608420360737,87.54803437887313L872.4539375735585,76.37780978912633L864.1158155254161,63.86271245338321L865.5312052629051,60.39469793249191L863.0642428648425,57.427546502009136L856.0240277493886,51.53759100546995L848.0262863035732,51.52438435309341L843.1251933166368,42.69596469103817L826.6120987698177,26.99280059400553L839.1241138944788,26.653760556087946L846.2799865389734,26.451391733313358L855.3099957187169,26.187221477106505L868.8461921040453,25.7790870397057Z" class="counties" stroke="#000" style="stroke-width: 1px; fill: none;"/><path d="M860.4386382500579,140.58269366864988L862.147403631845,110.05928316414429L865.6216886236361,110.50349607772114L869.2439790947737,106.55666982741059L868.1819477934296,101.87000582567816L877.3084011477058,100.13767381531216L884.5222209187832,105.16378207653179L890.8797488063137,119.61452872149312L891.6936241484218,145.14450684953772L887.2031340462527,151.36333532383833L877.3287705647272,151.25484572525602L873.5967785818721,140.17255018836113ZM897.7121290176019,116.2428687525553L891.1731276014489,104.40350488194963L900.8997049116424,111.408296634816L902.661085412472,120.11156215776282L897.0472369054787,119.28896069150687ZM891.593730728875,200.55459988053008L907.6163304433467,190.8863199193147L914.0035512047962,190.2062042697671L918.3199956173939,153.63668161245914L911.3150773760844,125.25967449343625L917.5298706429967,137.35711473139054L920,153.50867831422875L915.2648492214412,195.22723481369212L892.1236582429847,202.41174902953935ZM883.9084099722859,66.74479161876116L910.974045463643,124.42278776931926L898.2366897587963,100.77305210872692L890.269792098592,96.19571272650137L881.7544903565049,67.3631898777694Z" class="counties" stroke="#000" style="stroke-width: 1px; fill: none;"/><path d="M407.142304392155,102.61582571969848L425.8425920289392,99.99033190782393L425.8578225953588,96.05058639658091L443.42674792233447,98.53408991581455L443.0287623569475,110.30691483430928L441.0699807791716,164.56933353879504L429.05667267702665,164.53240862113853L426.40805381768587,154.51377542136652L413.68804999386884,141.16295578784957L413.58646338477047,136.06672780643567L400.5097323917307,132.63722332502766L397.5569159989045,120.7067152761374L407.8225074297825,119.33488271954047L404.94760743300685,114.72597580143156L410.2188149396625,113.04757212369623Z" class="counties" stroke="#000" style="stroke-width: 1px; fill: none;"/><path d="M376.5976953549398,91.58709469781024L396.7809484453046,92.74381995949625L400.3012994705841,90.8443846506998L407.142304392155,102.61582571969848L410.2188149396625,113.04757212369623L404.94760743300685,114.72597580143156L407.8225074297825,119.33488271954047L397.5569159989045,120.7067152761374L400.5097323917307,132.63722332502766L398.4862243704538,128.36842035622067L382.6964073543186,118.67624163946311L374.8935629544085,117.53992057457253Z" class="counties" stroke="#000" style="stroke-width: 1px; fill: none;"/><path d="M639.5382426348533,207.21606542716472L648.576986786391,209.01413055534795L654.431498423306,206.5211501868598L668.0654772400776,212.5110045485344L673.9663018254123,208.44072321082785L680.8579073265082,212.55721738560715L685.3826691395952,230.49366024780284L690.9272125825355,235.03168161923531L693.9955640977951,241.31745211821544L691.6263887117184,267.84762730855437L646.1864916823615,268.1551293288012L643.9819005458121,269.8222023771614L636.9794751198988,266.24173172075825L642.1227650264009,244.63589779809809Z" class="counties" stroke="#000" style="stroke-width: 1px; fill: none;"/><path d="M555.7851999748873,70.17458949152933L571.1114386365389,70.68351662390523L570.9478871564934,89.93430711194742L576.8259936684444,92.20608462080418L576.4996699766962,97.3337186914523L582.0764832161567,99.81394668128269L578.9464006141043,108.62051862057888L576.0241357198429,112.20523020461405L571.1615632529138,110.9034504731153L568.3851014759312,118.82729241047309L560.9195959131612,118.68219928398139L549.5374662179565,119.17330889189725Z" class="counties" stroke="#000" style="stroke-width: 1px; fill: none;"/><path d="M685.1822520328151,81.23439999856055L701.5430814930914,88.48411446825412L703.2186104748107,96.07813142364466L716.1727204572453,100.15286819098037L722.7488989053709,113.02706953378765L722.2010866346009,124.25357976097985L718.0482335403885,122.5312497810828L709.6305263798822,126.79305858988846L690.4032710485153,143.15054728531504L684.1396972307448,136.3272157973406L680.574964606265,123.63526359036587L672.4873407843988,118.5896212794396Z" class="counties" stroke="#000" style="stroke-width: 1px; fill: none;"/><path d="M401.476789452563,64.69890185913209L444.222324122009,66.25382191153221L443.42674792233447,98.53408991581455L425.8578225953588,96.05058639658091L425.8425920289392,99.99033190782393L407.142304392155,102.61582571969848L400.3012994705841,90.8443846506998L396.7809484453046,92.74381995949625L395.6367758777651,84.85401122354051L402.6887171050039,80.81007519054583L401.4259887958942,67.36065792977388Z" class="counties" stroke="#000" style="stroke-width: 1px; fill: none;"/><path d="M622.0793406126686,66.8321618517075L635.9097705569384,68.18936502829092L643.2154413333101,74.19605946942829L653.1847365062131,74.99177330784914L628.422712685755,125.31113195535181L617.965049887538,110.54521394575931L597.8228338623303,98.70720604032067L602.6946028191651,78.70974030957223L610.4373726070935,80.10511195711479L614.7854078690998,70.88428764190212L618.931621897178,70.94085782300681Z" class="counties" stroke="#000" style="stroke-width: 1px; fill: none;"/><path d="M297.16167965024397,171.81919406649467L348.9937286757977,176.04694671493053L346.051468055688,180.25354999680167L352.3090008350555,181.54579534284312L345.9403694082139,183.8431362887859L342.7157997436425,193.12888483341158L343.59549511479963,207.93940130976625L339.71443644107967,208.84506947409136L339.7469883282174,208.78086595794957L339.66901039382356,208.69587630698152L335.8767878686758,208.26757983445532L332.854481826751,207.92483260173867L331.02138509236465,207.76162461250897L326.38697363985375,207.34687599882272L324.1832352595666,207.14866141391394L319.3605311866013,206.71261254089586L319.1190605433312,206.69041998664034L316.51751389951096,206.4754624612251L314.5443951247107,206.31176377634074L313.72127661776176,206.24334433398326L311.4064685810008,206.0504490020594L310.1663136957486,205.9467795441451L311.1509079475436,193.25653069699183L307.46629423007107,190.59863604392012L307.37492624200786,183.874631600449Z" class="counties" stroke="#000" style="stroke-width: 1px; fill: none;"/><path d="M788.3890542458339,27.84799986352664L791.4299410527219,27.78843808397687L799.5913277350883,27.623106825674768L803.0755022392277,27.59970950295792L808.4142350817547,32.645571243730956L812.8755874598482,49.7616704201173L802.0701463727019,53.49227190952297L788.1322735431149,60.97443174422915L779.7239262176572,52.776769811118356L762.0645413205693,46.497586114628575L761.2605287633123,38.793607039213384L765.6361565991065,33.62828170431021L764.5492924267837,29.242779197329583L764.5346506457663,28.166274148337834L775.7433849932113,28.146139981277884L778.3978251499302,28.086437635438415L781.6545726570876,28.056629015169165L782.820863578645,27.954149614435664Z" class="counties" stroke="#000" style="stroke-width: 1px; fill: none;"/><path d="M39.242688918704516,151.95472697335572L40.068026161583475,152.42443757537694L77.69378620325733,158.43272914669615L74.1186217370796,169.4943264834128L67.05206048849686,172.3598997096924L67.36865464106631,178.2677194570697L64.91803118275675,182.19477039984304L50.31058715259314,180.29012443232386L37.554164349170605,184.3449346873167L33.8556706505824,181.6885265563251L31.495529597519635,174.09185857138073L31.621567263100587,174.020619733501L30.820957132644253,166.60896254238833L33.25325675019121,164.6015900622915L34.05744739678266,163.76104715879046L34.01525217953895,162.80257348146006L33.87796142435582,162.28993113816068L33.741689060911085,162.05517437184426L33.76777038002001,161.96776273029172L32.88666086002013,158.62499315859895Z" class="counties" stroke="#000" style="stroke-width: 1px; fill: none;"/><path d="M604.6707333291743,30.81011074743219L606.1133048714091,30.790116786331055L601.992864865595,34.4099118658778L600.6860057674476,42.286074809151614L602.6946028191651,78.70974030957223L597.8228338623303,98.70720604032067L583.6002121429228,91.80434899910142L576.8259936684444,92.20608462080418L570.9478871564934,89.93430711194742L571.1114386365389,70.68351662390523L571.282839869953,30.773402470107612L574.4506519986007,30.78841930951421L575.1727183462608,30.77576954232427L577.6568074002844,30.781332555132394L584.2389988830437,30.7923070666875L584.9302346973345,30.79809652199947L585.8588612031381,30.820282855456753L590.8864823549047,30.93840958716828L598.3080770504566,30.969090031108863L600.6743106907797,30.965804241881415Z" class="counties" stroke="#000" style="stroke-width: 1px; fill: none;"/><path d="M673.8529184228282,156.95650263873176L686.4090903561246,146.46084035040258L696.0812802983273,157.40212291134594L707.3459598209447,163.69332790878252L710.5228481236318,175.554641280758L690.3549150667768,186.07233165623438L687.1500238360513,181.85987052896962L676.3369548783285,183.3813042761849Z" class="counties" stroke="#000" style="stroke-width: 1px; fill: none;"/><path d="M444.222324122009,66.25382191153221L495.9369285214598,69.2508510204043L495.17247273779867,113.89940014325657L443.0287623569475,110.30691483430928L443.42674792233447,98.53408991581455Z" class="counties" stroke="#000" style="stroke-width: 1px; fill: none;"/><path d="M653.1847365062131,74.99177330784914L662.4869970222007,51.53144828959012L663.6298667785231,35.29173283709861L689.6338502238523,38.45860248340796L691.8388703321616,43.08997057023953L699.7326717379219,47.3080639363925L700.1026925374317,52.272411441494114L696.3665390084461,56.69369818294035L697.7589739956511,60.09415642839849L711.0347485428047,58.62099102914544L717.9410410776436,68.71807599120257L717.4357656309949,73.56210780140827L727.1005430459991,78.70229227031086L733.7356925162858,86.81269517279543L723.7058890138578,90.98711667733915L716.1727204572453,100.15286819098037L703.2186104748107,96.07813142364466L701.5430814930914,88.48411446825412L685.1822520328151,81.23439999856055L682.7160830498724,83.72382374555309L679.8220556741962,80.73541772178578L665.5806824028932,82.57890489303463L661.7010795030674,76.73586527474617L656.6672945345545,76.05843003232076L656.1915334396544,78.54566869029077Z" class="counties" stroke="#000" style="stroke-width: 1px; fill: none;"/><path d="M560.4474773824768,155.8321836091909L581.9830477065188,164.30933412812192L590.5705256438323,172.2927159969986L600.8913568584576,188.09623405926868L599.8106456363203,190.92693453734682L592.066210692441,200.0115103352582L573.5424745561068,197.3398189344025L564.5353109951866,202.06466980184086L542.2472311730235,206.8683003750957L528.9061778153737,196.85160586949132L532.9887719698054,191.8032205816162L554.762139765342,163.80486781061518Z" class="counties" stroke="#000" style="stroke-width: 1px; fill: none;"/><path d="M142.90861852381204,115.47232264854028L143.99071244575862,122.25970366731053L147.4380096004552,121.94473264573935L150.6496648096072,130.84538239322865L153.79939569545058,139.04829405356577L158.04158254073627,138.10679276498922L162.43252327093978,146.1012937306059L158.6100392320186,158.6725394623445L164.14132154201798,165.25492772573125L154.88595533830812,178.51863510764997L145.64502872269622,181.50165468575688L129.76693191530103,159.995406438773L123.86510101493514,157.45467877120063L123.93872321988965,154.0636762462873L119.05998084782186,150.5504508310587L122.25694006123194,145.6648003767641L117.89194223813502,133.61525888753386L120.04612146492582,129.95180175896894L112.55725554790843,126.23060284918938L112.57484772327734,126.19646816087152L112.65797942924837,123.70554738774626L128.79705953547818,116.81428347734072L129.11256395748205,116.66172269713206L131.05312919641074,115.01125738161318L131.53706132784646,114.96881290850797L135.0643212916657,115.60871892941577L135.40496874093515,115.54633928523981L136.1753742089095,115.91153225201197L136.97492114522174,116.29041552295894L137.82179282131074,116.69158032659834L142.80847691603958,115.6473589749603Z" class="counties" stroke="#000" style="stroke-width: 1px; fill: none;"/><path d="M213.67340170875832,161.92529664966605L213.95441611967,171.7646765421432L204.9862128635923,185.34559702563092L203.9820302309363,197.71256599230946L203.7804808734454,197.74825536072785L201.3339910504892,197.10277046519877L201.37295713179265,196.88857067297795L201.38524471894743,196.82093826089476L200.86772682628725,195.15059568208562L200.2630935706784,194.52755417828848L200.21625464404678,194.479288837465L199.95872712911842,194.4656471365888L199.9046689462357,194.51646299088316L199.66747630716782,194.73943222721937L196.64559762582758,197.2399155193325L196.25621002436128,198.52037056265544L195.5931286209816,200.1260032252867L193.66977913833944,199.7872592750682L193.65154399103085,199.5144486356494L181.42726492538532,202.79689383037476L181.23577903417208,202.87803958374934L176.7609224937296,181.6238138144472L164.14132154201798,165.25492772573125L171.7497834662936,160.8437416304223L176.88947086941516,164.29007580533107L184.4500028882194,163.5247543939895L186.3447793809737,166.43980770670896L185.8671426286237,163.57243293272586L192.5533009593928,163.80446943977404L198.04843975120275,160.2421610294714L203.47231756223118,162.31159329088769L203.05800403597277,159.06982512723152L206.87232670048616,157.3141501466598Z" class="counties" stroke="#000" style="stroke-width: 1px; fill: none;"/><path d="M748.0626602231332,29.434972335790007L751.9828189878936,29.392277459011893L764.5492924267837,29.242779197329583L765.6361565991065,33.62828170431021L761.2605287633123,38.793607039213384L762.0645413205693,46.497586114628575L779.7239262176572,52.776769811118356L788.1322735431149,60.97443174422915L787.3154181724803,67.7996556492526L735.4124596818256,68.37354916852019L742.0918137007411,41.10357166442736L749.3000682010133,36.90174431495507L738.9669462645707,29.34601911906975L743.0592898374562,29.587536918601472L745.5687804404497,29.479286606665482L746.1190237353494,29.455448071543287Z" class="counties" stroke="#000" style="stroke-width: 1px; fill: none;"/><path d="M504.6339439789426,226.07501715673425L526.5027171743695,203.97631688038746L537.4228286352427,209.85334725895154L542.1102145121858,209.2416803872402L542.95138915391,225.7632453003789L549.0774546903758,238.08949881197077L532.9067169875361,253.72132709135622L516.5120180184858,252.94207679866122L515.0030041051778,237.2898284642306Z" class="counties" stroke="#000" style="stroke-width: 1px; fill: none;"/><path d="M796.6687312570921,137.65071590974912L821.9939303704978,138.01782914314936L835.1347795051333,138.55209590603408L832.5647538817066,149.2240599255838L841.168332100171,150.41445160494732L845.2721724289604,137.3457337275595L860.4386382500579,140.58269366864988L873.5967785818721,140.17255018836113L877.3287705647272,151.25484572525602L868.7800362992857,158.8513377110503L862.4676099435073,174.1071294957237L858.4180412109326,174.30952000084653L857.6256564209234,179.44991051216675L849.4527043986509,185.47863843831146L840.3990551293828,182.68270674025007L822.3035827201893,183.20088609585218L817.9127649812945,178.93371125341764L814.0961367530836,180.64463679119035L807.6243097006045,178.4333010300452L801.1984801837789,162.1771918453851L812.8279509086115,161.23103544121477L815.0518853690337,156.42726745562686L802.2446726671023,148.5339714731981ZM892.1236582429847,202.41174902953935L864.9497264308957,218.93103846144004L867.9031528218075,211.72132987430086L891.593730728875,200.55459988053008Z" class="counties" stroke="#000" style="stroke-width: 1px; fill: none;"/><path d="M357.12609420296394,90.39006666437308L376.5976953549398,91.58709469781024L374.8935629544085,117.53992057457253L368.1945451844367,140.663850464216L371.6546196527361,162.76837088871252L366.7945049145692,162.63415960413658L353.79254596401006,161.20013529473L349.92370762226165,164.67740204762413L348.6274870082543,156.7501989694938L352.41316507435295,147.28306072071973L344.95551597613485,136.07205139377766L338.31260274168926,135.03753451595003L333.0945623839016,125.7794077632625L340.5090530575653,115.75412599718402L344.398829935506,102.61829687690079L342.0138255630209,91.21463951258556Z" class="counties" stroke="#000" style="stroke-width: 1px; fill: none;"/><path d="M102.59771740180986,173.76164810963382L101.87401170781413,155.61451789873354L105.32126747416987,156.21073182049076L113.9568433955883,148.93032263101122L119.05998084782186,150.5504508310587L123.93872321988965,154.0636762462873L123.86510101493514,157.45467877120063L129.76693191530103,159.995406438773L145.64502872269622,181.50165468575688L144.7580646294009,188.77713623145792L137.43155334540097,197.9428511611295L139.43891745446126,202.0116136167071L130.88059477790011,212.06158345788754L135.769124594226,215.8039303696478L133.00247502623824,216.58525489447675L131.911267419855,216.89318223985538L125.36506648122122,218.73733596745296L119.05544118387479,210.45327775634905L121.62066788333323,206.52422264825145L114.00529258941606,197.19935439791334L114.1819899797647,186.69416416257627L107.27599705674038,186.89675568602615Z" class="counties" stroke="#000" style="stroke-width: 1px; fill: none;"/><path d="M628.422712685755,125.31113195535181L628.9880162105037,131.11354904971085L635.1481175759054,136.65460888918278L638.2904964061472,138.8772668724232L642.3761152879633,153.23527349199685L648.759155245667,155.49634331601192L639.816636669002,177.43546726713794L640.1541518169379,186.2023857803506L628.324465986505,189.58067988177027L624.5549455985074,194.67096376701556L613.6083376885781,198.58771511866325L605.1366406336183,197.6911906718815L599.8106456363203,190.92693453734682L600.8913568584576,188.09623405926868L590.5705256438323,172.2927159969986L581.9830477065188,164.30933412812192L606.2194561770084,140.05466872067518Z" class="counties" stroke="#000" style="stroke-width: 1px; fill: none;"/><path d="M685.3826691395952,230.49366024780284L698.6475370605476,222.05137281625684L707.6943672067264,209.85425629235215L705.9825775756835,199.60150292267463L711.4559352076849,201.3498253637772L741.9107885037029,220.0269114789644L743.1117211535129,223.27981884882865L749.715396720625,220.81679256995812L750.9669644843616,252.43371529585238L757.4591572115787,251.80915224116688L753.3163774262612,256.0988774678499L745.4401947073748,258.57653628091794L742.172302552608,255.4749684997023L743.6446522434071,251.97457605630916L734.1555874059086,240.44200813680618L727.6720444511539,238.92675007012804L723.9004811305713,242.46181209359202L709.3766242890797,235.1342061077994L690.9272125825355,235.03168161923531Z" class="counties" stroke="#000" style="stroke-width: 1px; fill: none;"/><path d="M554.762139765342,163.80486781061518L532.9887719698054,191.8032205816162L524.3775098903061,186.71267958048338L517.6019138782085,176.43386334467505L514.4235792076797,170.37197667867622L516.870762473116,166.69201629396775L515.3756236500267,164.06655169920487L520.7446371323877,159.47489807305465L524.0005701514438,162.1454505608708L526.6337476479694,157.30237985494387L530.9502767466402,158.8153413783184L539.1364021435711,149.88079723737246Z" class="counties" stroke="#000" style="stroke-width: 1px; fill: none;"/><path d="M710.5228481236318,175.554641280758L715.9604531022269,185.4975067034611L719.702272046663,186.70677774305477L715.5333429019847,188.10206198583182L713.7371426602786,192.10755093320768L716.3757320116874,197.32322720655247L711.4559352076849,201.3498253637772L705.9825775756835,199.60150292267463L707.6943672067264,209.85425629235215L698.6475370605476,222.05137281625684L685.3826691395952,230.49366024780284L680.8579073265082,212.55721738560715L673.9663018254123,208.44072321082785L676.3369548783285,183.3813042761849L687.1500238360513,181.85987052896962L690.3549150667768,186.07233165623438Z" class="counties" stroke="#000" style="stroke-width: 1px; fill: none;"/><path d="M289.334971424174,151.91920636395298L348.6274870082543,156.7501989694938L349.92370762226165,164.67740204762413L348.9937286757977,176.04694671493053L297.16167965024397,171.81919406649467L292.06693284525136,155.05702621989258L288.99155199523557,152.50263390907458Z" class="counties" stroke="#000" style="stroke-width: 1px; fill: none;"/><path d="M247.9643765723631,98.82809832188468L251.5986983022558,108.98712467808946L250.15652195076473,113.62927798446981L243.164467113731,118.6656563827164L255.08039650366118,130.69024377690948L259.4488090789964,149.89192794097107L257.4818371385263,154.11982915133194L243.94556472908334,155.84113434455867L240.99190171354348,152.12703188776322L223.7991365749258,154.48379974560885L211.39599429436748,145.49356702013938L214.1501521343107,142.63094206941423L211.2272154060429,133.36969519984086L213.2728463367148,130.73424550096388L221.85631307142648,126.97544256316905L228.18813857398527,115.66293600871177L238.17015989639367,111.60604909793256L239.65620952293648,108.2697824424522L242.85988199731764,109.55300034812899L243.94876758539613,104.94718922757602Z" class="counties" stroke="#000" style="stroke-width: 1px; fill: none;"/><path d="M67.36865464106631,178.2677194570697L102.59771740180986,173.76164810963382L107.27599705674038,186.89675568602615L114.1819899797647,186.69416416257627L114.00529258941606,197.19935439791334L121.62066788333323,206.52422264825145L119.05544118387479,210.45327775634905L125.36506648122122,218.73733596745296L116.89141580222349,218.4099781997138L116.18117572652955,218.3920726722008L103.19181341279364,218.0528888730969L87.11371422283082,217.35328909068812L86.57319842851575,217.3291592409605L82.73543278821307,216.69833287585607L69.62500301040745,194.6220200811149L60.89065987370668,194.17259279865175L64.91803118275675,182.19477039984304Z" class="counties" stroke="#000" style="stroke-width: 1px; fill: none;"/><path d="M176.5453424364714,81.62052590972053L180.63469408560923,84.87184642797547L180.41790407996814,87.71111197967002L179.90312984859702,88.6869547540482L179.6088000992986,89.2449140253193L179.58655379501943,94.3541504600089L179.90260351234065,94.55399789792136L186.5970946838679,94.65723435685504L186.85185331891444,94.55701782457072L186.8697699606255,94.5499730414449L186.92727745460616,94.52734140054963L188.85064390543994,93.90372862314871L189.13829813824486,93.80395502007013L189.28649738648346,93.75253364749915L190.42462019902632,93.5864829759139L192.94527069720607,97.43314551721232L191.3138313077052,102.5448176284408L196.02676848143346,104.52397274578288L199.87510348441538,115.099280289347L189.0438656375136,116.46809714174196L172.83145871106535,125.80141401175933L169.6052996971939,124.48380333127352L158.63728848571918,130.30833203200382L154.3092076819612,127.96817210444351L150.6496648096072,130.84538239322865L147.4380096004552,121.94473264573935L143.99071244575862,122.25970366731053L142.90861852381204,115.47232264854028L143.01098628430918,115.29338235113937L143.3811785156322,113.92168310597481L143.6862631230615,113.33957061162437L143.73145809331982,113.08800663120019L144.13530127598096,112.27041168148025L144.831899866007,111.19341881357468L145.0079610415196,111.07509009749083L145.6690345316656,110.89218679264195L146.27175469526264,109.73683712693492L146.7190926957719,109.46840763737237L147.15302818033888,109.4032723452965L147.4878425191764,109.10764408196155L147.6075786402307,108.69446536457872L147.9527025950465,105.91286987160493L148.71240966804726,105.54446395033483L149.52727435497945,105.14921344340655L149.69642074926742,104.89423256788541L149.0715865300008,100.53413229917533L148.6100351251025,99.54281809418717L148.6087754230848,99.18683749230149L148.6075174136331,98.84775889953926L150.06330015004824,95.62161694037968L154.78100807535884,95.37086194275253L157.83159220086964,99.13869850250921L160.10091423163794,96.32761188502809L161.43610260376772,95.3634860950242L161.4552792859995,95.34963584302022L161.73616275229688,91.98769825507043L161.79992133053202,90.65608908365539L162.4160610337567,90.0871885007673L169.1087659346358,85.71072862944675L169.9015267913055,85.55770110857702L170.34902628385498,85.27981378017648L175.85400756569652,82.2408244803155Z" class="counties" stroke="#000" style="stroke-width: 1px; fill: none;"/><path d="M723.7058890138578,90.98711667733915L736.3757070111496,99.46735717096453L738.7151231769622,109.3608043715758L748.5387452998093,110.09945332521602L753.5912323927296,107.60049461791277L754.8356488554746,118.72960311457791L765.803838443886,112.99900284862451L770.9515282610082,124.3697661150527L775.9588841262521,114.59994814528363L783.248879718185,117.19611116735359L775.1524966292236,138.1143311810083L760.7135021843042,144.5176544170372L740.8789073075259,135.1882661002728L722.2010866346009,124.25357976097985L722.7488989053709,113.02706953378765L716.1727204572453,100.15286819098037Z" class="counties" stroke="#000" style="stroke-width: 1px; fill: none;"/><path d="M366.7945049145692,162.63415960413658L368.57866265925804,176.5361591410492L376.04623512468606,183.91782858686747L378.86156537098395,194.38690731691713L390.92810035654657,202.44625167890445L360.72444584539517,228.7792915093978L359.57713521692494,227.05404371705663L356.1102293922431,221.8349362857207L353.86792523661643,218.71874153559838L350.9316362125501,214.61096953276137L349.12521861890673,216.02306151069024L348.54225651653724,216.4786389406927L339.82394564661445,222.50717073684973L338.35679834079383,220.43786398874363L338.2346892363148,220.25015844303198L338.15528101064956,220.12810125022406L338.1225543843757,218.71490372311928L338.137390486605,218.43753660266339L338.213298417857,217.01909836209234L338.252739635589,216.92350530674958L338.33312552962525,216.7286113897717L338.755786693293,215.7038642381758L338.96510899158966,215.37678334025986L339.33559205024903,215.1519654647309L340.0242968639268,214.99065549824627L338.8709679835065,210.85541160848697L339.22879842643306,209.48740279696904L339.69076984624735,208.89174884227577L339.71443644107967,208.84506947409136L343.59549511479963,207.93940130976625L342.7157997436425,193.12888483341158L345.9403694082139,183.8431362887859L352.3090008350555,181.54579534284312L346.051468055688,180.25354999680167L348.9937286757977,176.04694671493053L349.92370762226165,164.67740204762413L353.79254596401006,161.20013529473Z" class="counties" stroke="#000" style="stroke-width: 1px; fill: none;"/><path d="M227.5061697808178,72.86440615973515L227.88093926131114,73.57991871576814L228.19734148877615,74.64772878715485L228.44725293826014,76.8488334033409L229.16273536128392,78.61461845645135L229.51582678311388,78.89483487825783L230.73481666011503,78.92739357220489L231.2475728628233,78.67436977531179L231.3661114001152,78.6158725852165L233.73856954250732,78.887525269869L234.3010101488744,78.9518778159545L238.31851122975786,92.00699887063274L237.24380601064877,97.77424808841715L243.94876758539613,104.94718922757602L242.85988199731764,109.55300034812899L239.65620952293648,108.2697824424522L238.17015989639367,111.60604909793256L228.18813857398527,115.66293600871177L226.95203274600135,101.37518816694319L221.88494315191383,98.48120670749813L222.09151365199614,90.30798425539615L216.50676124935308,90.8931210716637L216.3624773450374,93.38940117525817L211.62916915738424,85.72623607238529L207.69748344486288,87.56139663605427L206.47323232571762,80.38051938893477L199.79568506076066,81.55464105142346L200.39314517742605,80.49747914865293L200.56091536861823,80.20065272037937L202.59605317564274,78.52968170094937L203.57514247897961,78.26466447806706L203.7593407087843,77.81351734366581L204.09493948987802,77.46236882974335L204.52436443775878,77.38209729215487L211.14913370288195,74.8111332985718L211.60726299055204,74.46600348809989L212.14551010185278,74.20389373348189L212.99061337550847,73.95734621844349L213.01800377787004,73.96939681693584L213.09205970265975,74.0019775086148L213.90214432493303,74.91159381365287L213.9471447518972,74.9241372560009L214.0752134388349,74.95983573298327L214.54838127423864,74.8653409090839L214.8604888325226,75.11798073991667L215.08426348588182,75.20428842349793L215.39898036181876,75.1446373115341L215.64508391211893,74.82860150466695L217.26712662813225,74.81086244065409L217.58555830436853,74.5752573430218L218.59812719149886,73.44928276875362L219.27865457759617,72.83833810377291L219.9450982671533,71.51787119352412L226.68386988179373,73.00845231341009L227.43874065501404,72.87622338588153Z" class="counties" stroke="#000" style="stroke-width: 1px; fill: none;"/><path d="M441.0699807791716,164.56933353879504L471.89498319912855,164.365816691492L478.03696890246283,195.3368671493172L488.30190390643656,210.10403045725616L463.56233431409237,207.1793607523905L445.869241350616,212.9195967485157L440.3151940417356,212.06858017954073L442.59550011119245,207.45708204109906L437.86917882410125,196.9600036792399L442.7247337564204,182.19316049006193L438.30500866475813,178.11616954460442L436.6072295780941,170.36270646042794L429.05667267702665,164.53240862113853Z" class="counties" stroke="#000" style="stroke-width: 1px; fill: none;"/><path d="M515.3756236500267,164.06655169920487L516.870762473116,166.69201629396775L514.4235792076797,170.37197667867622L517.6019138782085,176.43386334467505L524.3775098903061,186.71267958048338L532.9887719698054,191.8032205816162L528.9061778153737,196.85160586949132L542.2472311730235,206.8683003750957L542.1102145121858,209.2416803872402L537.4228286352427,209.85334725895154L526.5027171743695,203.97631688038746L504.6339439789426,226.07501715673425L492.88512480867576,222.9531927848111L492.4648785237241,215.70641745793182L488.30190390643656,210.10403045725616L478.03696890246283,195.3368671493172L471.89498319912855,164.365816691492L494.02730283491474,164.19777490208435Z" class="counties" stroke="#000" style="stroke-width: 1px; fill: none;"/><path d="M685.1822520328151,81.23439999856055L672.4873407843988,118.5896212794396L670.8784652338727,122.46852170743114L665.3825783612301,121.66059061648593L635.1481175759054,136.65460888918278L628.9880162105037,131.11354904971085L628.422712685755,125.31113195535181L653.1847365062131,74.99177330784914L656.1915334396544,78.54566869029077L656.6672945345545,76.05843003232076L661.7010795030674,76.73586527474617L665.5806824028932,82.57890489303463L679.8220556741962,80.73541772178578L682.7160830498724,83.72382374555309Z" class="counties" stroke="#000" style="stroke-width: 1px; fill: none;"/><path d="M656.2179779857051,318.9958526255177L660.0603110385528,318.2484968803019L663.3242232480861,312.2373990590113L666.1381537657289,315.46405495496583L677.8351537698,311.23717158064755L680.6643850199634,317.3477205044401L689.4909217461882,323.6903871168506L678.0142686484087,340.8199544011968L667.4716252637045,371.4379846091997L664.8401683124321,331.87861593522575Z" class="counties" stroke="#000" style="stroke-width: 1px; fill: none;"/><path d="M678.7751821953552,30.14813552868509L695.1275405611595,30.038607976630374L696.2123430173615,30.03017811205791L719.2042858405803,29.817409673813017L725.3574693396131,29.749430436591865L728.8062437262088,29.709329331975823L734.7889512142356,29.6363309024473L738.9669462645707,29.34601911906975L749.3000682010133,36.90174431495507L742.0918137007411,41.10357166442736L735.4124596818256,68.37354916852019L733.0079036834377,72.61823423070928L726.4241385902114,73.46763455659311L727.1005430459991,78.70229227031086L717.4357656309949,73.56210780140827L717.9410410776436,68.71807599120257L711.0347485428047,58.62099102914544L697.7589739956511,60.09415642839849L696.3665390084461,56.69369818294035L700.1026925374317,52.272411441494114L699.7326717379219,47.3080639363925L691.8388703321616,43.08997057023953L689.6338502238523,38.45860248340796L663.6298667785231,35.29173283709861L663.3512288730199,30.366519014023652L665.1409598968839,30.345999353823572L665.8683192957578,30.339250270035336L675.8885463829411,30.192633622404173L676.9848677596456,30.175839216524764L677.1230594878798,30.173725555012425Z" class="counties" stroke="#000" style="stroke-width: 1px; fill: none;"/><path d="M745.4401947073748,258.57653628091794L752.0234894794612,267.8572225565349L751.5800716237518,277.4484410315563L709.8009830054089,304.1117083507652L703.5104100070239,299.4655193649378L691.6263887117184,267.84762730855437L693.9955640977951,241.31745211821544L690.9272125825355,235.03168161923531L709.3766242890797,235.1342061077994L723.9004811305713,242.46181209359202L727.6720444511539,238.92675007012804L734.1555874059086,240.44200813680618L743.6446522434071,251.97457605630916L742.172302552608,255.4749684997023Z" class="counties" stroke="#000" style="stroke-width: 1px; fill: none;"/><path d="M534.8908577425318,69.62090220350728L555.7851999748873,70.17458949152933L549.5374662179565,119.17330889189725L525.4016529050696,117.25436486948274L524.2661900345374,69.28603725490393Z" class="counties" stroke="#000" style="stroke-width: 1px; fill: none;"/><path d="M801.7770313036763,185.32449859234111L814.7210495010386,188.086344944375L816.5024988728564,194.91204023755745L808.9277158528785,213.10505163406378L799.4902658251995,222.71253648833044L799.1340837194075,226.78340332465814L792.312804439749,231.87861245234853L781.1337355837932,235.98872498922356L765.2037917688358,224.86409198796537L768.334029687021,216.24560592678972L762.6080393124412,210.05693054442054L771.7848655112448,196.9918298164739L777.212429268513,201.76272103909832L799.3882332372905,198.73878375887216Z" class="counties" stroke="#000" style="stroke-width: 1px; fill: none;"/><path d="M808.4142350817547,32.645571243730956L821.8663659944523,42.83780274118908L826.3729971641515,43.132596522227686L833.299907058501,51.177093185815465L835.739320364848,49.88880100418646L837.638887449084,55.66775034498278L841.2544351797424,56.304614880393274L837.6470766093462,59.42571701625093L846.2977292854048,62.69686796572387L855.7944109553337,73.9339574799451L853.4759948699648,79.57278756091364L841.2847456443615,83.02230225581116L830.5017236284075,69.4676330179118L821.5201234958204,65.03823751857817L812.8755874598482,49.7616704201173Z" class="counties" stroke="#000" style="stroke-width: 1px; fill: none;"/><path d="M691.6263887117184,267.84762730855437L703.5104100070239,299.4655193649378L709.8009830054089,304.1117083507652L689.4909217461882,323.6903871168506L680.6643850199634,317.3477205044401L677.8351537698,311.23717158064755L666.1381537657289,315.46405495496583L663.3242232480861,312.2373990590113L660.0603110385528,318.2484968803019L656.2179779857051,318.9958526255177L644.7932083147734,313.8750286727536L642.1784978728065,315.8166951641542L638.0850922945174,316.41872456801684L632.1344136100051,310.32500493489897L640.334609432206,301.7124488639038L632.2121644687868,296.6041028552754L630.0372511445112,292.3139985742382L631.8399635706046,290.2054499715596L646.1864916823615,268.1551293288012Z" class="counties" stroke="#000" style="stroke-width: 1px; fill: none;"/><path d="M812.8755874598482,49.7616704201173L821.5201234958204,65.03823751857817L830.5017236284075,69.4676330179118L841.2847456443615,83.02230225581116L838.6759803790537,85.82092627088241L831.3214779598493,84.79283431268959L818.5337481471452,88.97941395653106L801.7772335608006,84.94599933718564L799.399802361444,68.19446401045025L802.0701463727019,53.49227190952297Z" class="counties" stroke="#000" style="stroke-width: 1px; fill: none;"/><path d="M553.2751568770927,30.6001092135848L553.4020041144831,30.597048823528894L556.3075177974297,30.628887213366397L556.3326139088695,30.6246343984767L559.060486635979,30.662500347363675L559.1504404321149,30.663395719384425L560.5016226499683,30.67661219594447L571.282839869953,30.773402470107612L571.1114386365389,70.68351662390523L555.7851999748873,70.17458949152933L534.8908577425318,69.62090220350728L536.2376940422073,30.49923624233088L537.5914470182561,30.534909598465674Z" class="counties" stroke="#000" style="stroke-width: 1px; fill: none;"/><path d="M740.8789073075259,135.1882661002728L738.7732276107708,139.54600384560763L741.4613383770866,141.47306983203816L741.2303338694619,147.8554730597225L750.8289025684353,158.48437000124432L746.4081895093623,158.42857090184407L741.4401853805412,163.01473235011326L740.330182784237,176.08622738202212L733.7040396453649,185.13919696189623L729.5007212103483,181.42805960366059L723.606898552318,188.2166215078778L719.702272046663,186.70677774305477L715.9604531022269,185.4975067034611L710.5228481236318,175.554641280758L707.3459598209447,163.69332790878252L696.0812802983273,157.40212291134594L686.4090903561246,146.46084035040258L690.4032710485153,143.15054728531504L709.6305263798822,126.79305858988846L718.0482335403885,122.5312497810828L722.2010866346009,124.25357976097985Z" class="counties" stroke="#000" style="stroke-width: 1px; fill: none;"/><path d="M213.92632626090744,197.3503814708656L210.725702055066,197.20171298305104L210.00374811706388,197.64637385242168L207.97694289711217,198.05918566868422L207.87175813664544,198.10822962954262L207.65854003529785,198.46928287758965L207.0848613735434,198.84569838128482L206.71643310068248,198.7927085695792L204.33738010841444,197.64965693970225L203.9820302309363,197.71256599230946L204.9862128635923,185.34559702563092L213.95441611967,171.7646765421432L224.50332083709873,170.14141135817772L228.32713013414104,172.46404965869988L244.67873489517115,192.20093086089582L243.73085121960685,200.20917838835885L240.41034167909856,199.89736299507786L231.28756684774817,199.20021614433244L226.18348192701524,198.6486884526512L223.21151790565636,198.43577801286847L222.2598520904212,198.37969658723705L220.33661424202364,198.13736921863347L218.19352706804966,197.89317618144014L216.71549549749034,197.72885412017786L216.6743491074103,197.7242811835058L215.47813097757717,197.5616584219497Z" class="counties" stroke="#000" style="stroke-width: 1px; fill: none;"/><path d="M495.17247273779867,113.89940014325657L495.1426979437456,121.28607149450545L494.02730283491474,164.19777490208435L471.89498319912855,164.365816691492L441.0699807791716,164.56933353879504L443.0287623569475,110.30691483430928Z" class="counties" stroke="#000" style="stroke-width: 1px; fill: none;"/><path d="M488.30190390643656,210.10403045725616L492.4648785237241,215.70641745793182L492.88512480867576,222.9531927848111L504.6339439789426,226.07501715673425L492.8990389216506,232.48629595487546L491.6159281789478,238.77071516515207L494.08936056762104,243.33820062895575L487.3566503711918,250.87119133976012L488.7267878905295,255.72675808854547L481.0599593893239,256.9741359590116L480.99867920076395,256.9724651655597L480.777677541957,256.96450426144656L475.13990578220546,256.7994759405119L475.0552893082404,256.79378981832815L472.13785528045446,256.7200938320584L461.90880693905274,256.6518170101408L455.95839932208946,256.40811180821765L464.1297329906083,243.69741650062133L462.3459279966828,233.77426902293882L458.7056125321378,230.379053558745L461.20362435691095,225.62121258805928L455.6851361731642,215.65660989732896L448.2727570733732,219.76514245816725L441.1231186855439,216.16775136772594L440.3151940417356,212.06858017954073L445.869241350616,212.9195967485157L463.56233431409237,207.1793607523905Z" class="counties" stroke="#000" style="stroke-width: 1px; fill: none;"/><path d="M563.2901739767367,253.66302277824252L573.6401540083771,273.1268611651867L568.3170138484275,288.5567435309349L570.0861081047515,296.46576310321143L567.1710386255436,299.6917306108062L558.012377689698,304.9178774413358L557.1676273887024,310.81779059633845L552.7917322341418,312.8301768111087L552.97752548075,316.6542812590851L546.5836221003028,323.6334711082509L538.8682552353021,315.6833595330427L532.9105656769334,309.52434091786563L531.9988671029514,308.57275476361247L528.7115615156818,305.13881817444235L527.4892755004967,303.8609138322754L524.9845552197439,301.11307482994016L521.419587129767,297.19743383416244L521.3336868266997,297.1065610530586L519.6516337348421,295.3268257297841L515.9171320541627,291.28071824310973L506.1731805876425,281.3003921362051L504.9762054749517,280.1003766048634L504.9300428065235,280.05991075195743L518.3317199811772,261.5577153063041L516.5120180184858,252.94207679866122L532.9067169875361,253.72132709135622L549.0774546903758,238.08949881197077L558.870106642371,244.59094741650551Z" class="counties" stroke="#000" style="stroke-width: 1px; fill: none;"/><path d="M451.24217577182026,29.0945417978146L451.29664930048966,29.099206677219627L457.67617116908514,29.234042699477868L459.4576330115651,29.217087307273687L470.5101262371354,29.495803456873546L472.65686329371965,29.548119613131348L477.11407854047866,29.654872008972234L481.98255973680534,29.768525006546042L482.03195272509765,29.76935701426737L486.5731162126576,29.882834927353542L488.31920969389284,29.925803317008103L490.6803445677215,29.983285111853547L497.2788591894332,30.140059511388245L498.0329009151628,30.157616593582134L495.9750629861155,68.13312964025681L495.9369285214598,69.2508510204043L444.222324122009,66.25382191153221L445.1254453350084,28.965854660989862L448.7485741588789,29.04266776102486Z" class="counties" stroke="#000" style="stroke-width: 1px; fill: none;"/><path d="M400.5097323917307,132.63722332502766L413.58646338477047,136.06672780643567L413.68804999386884,141.16295578784957L426.40805381768587,154.51377542136652L429.05667267702665,164.53240862113853L417.38076629759234,164.4431538356639L371.6546196527361,162.76837088871252L368.1945451844367,140.663850464216L374.8935629544085,117.53992057457253L382.6964073543186,118.67624163946311L398.4862243704538,128.36842035622067Z" class="counties" stroke="#000" style="stroke-width: 1px; fill: none;"/><path d="M273.0554319763596,149.82647360565716L271.59651064282843,179.02751777906087L264.56404446650777,201.98820181374322L261.0430845346582,201.71115767857918L256.13427087931996,201.27257970520623L256.11969533303636,201.27127123321952L253.55292184007158,201.04065010723934L248.25488283965933,200.63167934467856L243.73085121960685,200.20917838835885L244.67873489517115,192.20093086089582L228.32713013414104,172.46404965869988L224.50332083709873,170.14141135817772L213.95441611967,171.7646765421432L213.67340170875832,161.92529664966605L216.07598373852124,161.99036952729693L217.16913144372847,155.26487098009238L223.7991365749258,154.48379974560885L240.99190171354348,152.12703188776322L243.94556472908334,155.84113434455867L257.4818371385263,154.11982915133194L259.4488090789964,149.89192794097107L266.69433698594366,145.29615785242277Z" class="counties" stroke="#000" style="stroke-width: 1px; fill: none;"/><path d="M624.5549455985074,194.67096376701556L630.7724328016884,202.46047505994102L639.5382426348533,207.21606542716472L642.1227650264009,244.63589779809809L636.9794751198988,266.24173172075825L643.9819005458121,269.8222023771614L646.1864916823615,268.1551293288012L631.8399635706046,290.2054499715596L605.790746566694,250.8464525815507L589.6343099683872,232.9618300466991L586.6679237411572,220.9589761753159L590.0586177767927,216.9001366168086L589.0986534745261,206.2965864196649L592.066210692441,200.0115103352582L599.8106456363203,190.92693453734682L605.1366406336183,197.6911906718815L613.6083376885781,198.58771511866325Z" class="counties" stroke="#000" style="stroke-width: 1px; fill: none;"/><path d="M516.5120180184858,252.94207679866122L518.3317199811772,261.5577153063041L504.9300428065235,280.05991075195743L504.1926806105748,279.4133007795899L501.91322895210396,276.97202650931104L498.8569682615562,273.8672635214116L494.3417575266285,269.2837319438131L489.99892681186975,264.8663720282693L486.95280488148273,261.76363121940267L486.67400400969746,261.47547947177554L482.33608153240675,257.0088532326099L481.0599593893239,256.9741359590116L488.7267878905295,255.72675808854547L487.3566503711918,250.87119133976012L494.08936056762104,243.33820062895575L491.6159281789478,238.77071516515207L492.8990389216506,232.48629595487546L504.6339439789426,226.07501715673425L515.0030041051778,237.2898284642306Z" class="counties" stroke="#000" style="stroke-width: 1px; fill: none;"/><path d="M429.05667267702665,164.53240862113853L436.6072295780941,170.36270646042794L438.30500866475813,178.11616954460442L442.7247337564204,182.19316049006193L437.86917882410125,196.9600036792399L442.59550011119245,207.45708204109906L440.3151940417356,212.06858017954073L436.3626901760963,205.29080772676025L431.08713344687385,211.28969771738593L424.69933623870565,210.0109782216332L421.7842403605882,202.8105680766712L419.3048776289761,204.704277295039L402.3983202309628,208.89342445636612L395.6051276030412,205.57349448543027L417.38076629759234,164.4431538356639Z" class="counties" stroke="#000" style="stroke-width: 1px; fill: none;"/><path d="M402.8973351929235,26.873886812114506L403.7656284215427,26.95116721375598L410.5690618106928,27.53068835747945L412.73822329980976,27.71418833826465L417.7068758004534,28.13208120274612L424.5586508825836,28.31509326284322L424.85067898931084,28.337744182979804L428.73245213524024,28.47958276490681L430.35190249991683,28.538173572513188L435.4119159461643,28.730371488934907L437.66736506277266,28.786140547470495L442.44513671970526,28.90210141562784L445.1254453350084,28.965854660989862L444.222324122009,66.25382191153221L401.476789452563,64.69890185913209Z" class="counties" stroke="#000" style="stroke-width: 1px; fill: none;"/><path d="M373.2436543418862,24.47815395440739L376.3523420680358,24.61651288257235L381.1078261612329,25.127509761550755L384.0256104854343,25.32080780473916L385.3156912767736,25.42850681265918L388.29118750833004,25.675974248741113L390.54581520857573,25.86279001429648L402.8973351929235,26.873886812114506L401.476789452563,64.69890185913209L401.4259887958942,67.36065792977388L399.6380963835509,64.7992011530896L393.0384058477521,64.8608342363732L391.98269692311806,61.441217396706634L387.0607681318379,63.204718236946064L383.5418295380732,60.785251930323284L380.50539039360774,65.41222589271274L372.1637905581374,61.433728859205075L358.23983481849973,66.73616410439536L358.79431574434966,54.94447910472445L348.8072908655704,44.74751130261575L347.97786317119426,39.00854827368312L355.7381276377946,23.99438888482473L361.2583777384607,24.467250450225038L362.2475854688255,24.55156143872773L362.27973309745903,24.554293862767736L362.3361518766378,24.551402179524302L365.7263108491952,24.442990119780006L368.81650610294673,24.607406306327903L368.8982255180963,24.60504223853968L370.01656792637186,24.57260767075968Z" class="counties" stroke="#000" style="stroke-width: 1px; fill: none;"/><path d="M112.55725554790843,126.23060284918938L120.04612146492582,129.95180175896894L117.89194223813502,133.61525888753386L122.25694006123194,145.6648003767641L119.05998084782186,150.5504508310587L113.9568433955883,148.93032263101122L105.32126747416987,156.21073182049076L101.87401170781413,155.61451789873354L102.59771740180986,173.76164810963382L67.36865464106631,178.2677194570697L67.05206048849686,172.3598997096924L74.1186217370796,169.4943264834128L77.69378620325733,158.43272914669615L40.068026161583475,152.42443757537694L42.999084682731336,150.8819792306549L43.54402275809662,150.9892519309251L49.94413940051345,145.03221440259222L50.49096510214076,145.1755474046331L59.09694059616777,140.35029754964125L70.28645672933271,140.1923233850739L81.63674481361886,141.58895536192722L82.80624671863552,141.48749082696486L89.60064903263083,139.41600592046234L89.86062846454661,139.2169160490066L89.88298073905753,139.19979653496375L93.21294600518559,136.09083091607317L94.11917428343986,136.38719103074436L95.22435605850114,136.29449473694513L96.24443734909619,135.6033853789104L96.85134708784972,135.21150187330204L100.93684687527639,133.02619731629056L101.84379804315176,131.9820063145071L101.86550205678213,131.95703127078923L107.63736738451371,131.16451386013796L108.16955384202993,130.97562626700892L112.47070574965437,126.3985932157102Z" class="counties" stroke="#000" style="stroke-width: 1px; fill: none;"/><path d="M164.14132154201798,165.25492772573125L176.7609224937296,181.6238138144472L181.23577903417208,202.87803958374934L180.60837786159027,203.1438592202412L174.37736922152544,204.66639521430443L173.96395968045,204.49614177410876L173.00315163199593,205.01868833685694L172.77901724276853,205.3889931098729L170.37257789844807,204.81603676836494L169.95829765275084,204.68795141058763L168.84164185988084,206.32686933515106L168.8963905642213,206.53581800031316L168.9036938116733,206.56362521432493L169.1232873593981,207.25470291494275L168.99556485699577,207.5418820070081L168.43612863037742,208.25840247163796L168.04952865963605,208.40762745840038L161.15797501205452,211.86019861806562L160.5731081470749,212.1847114618322L159.8109402208811,212.3192037934914L159.3426086390773,211.94121744605945L159.65683542203806,211.05412058566253L159.84235329327748,210.6407934208073L159.47813477561795,209.60573285117607L159.25817984496462,209.45994821788918L158.78240112385538,209.51002763326323L147.3603853946497,212.70542823788855L136.6948095914977,215.54228286578655L135.769124594226,215.8039303696478L130.88059477790011,212.06158345788754L139.43891745446126,202.0116136167071L137.43155334540097,197.9428511611295L144.7580646294009,188.77713623145792L145.64502872269622,181.50165468575688L154.88595533830812,178.51863510764997Z" class="counties" stroke="#000" style="stroke-width: 1px; fill: none;"/><path d="M823.9742984037566,105.8243692645683L839.4602776320771,99.7599178401615L855.1977320916685,98.64757420447495L860.2798022261304,102.73411122526704L862.147403631845,110.05928316414429L860.4386382500579,140.58269366864988L845.2721724289604,137.3457337275595L841.168332100171,150.41445160494732L832.5647538817066,149.2240599255838L835.1347795051333,138.55209590603408L821.9939303704978,138.01782914314936L820.6926491567501,126.18312813414013L825.5765983440506,116.59252847005337L822.5941840088835,109.73893603439501Z" class="counties" stroke="#000" style="stroke-width: 1px; fill: none;"/><path d="M395.6051276030412,205.57349448543027L402.3983202309628,208.89342445636612L419.3048776289761,204.704277295039L414.92532912186834,254.68454685480538L406.62877578249754,254.37174131371467L402.97811941440705,254.1819021856918L401.52482203438376,254.1019770608691L401.2227430073999,254.08685921040342L397.62449604834364,253.9606039031678L397.03192544460217,253.93964622451495L396.19966461988406,253.85990179991495L389.74349318536406,253.6804571373159L383.528628979062,253.4396355084009L380.8809179498003,253.31944961799854L377.2187018869299,253.18886654505695L376.2423584507087,253.15367470972706L375.9841890128082,253.14436143908097L375.5243801544657,253.1277694886394L367.82268698186635,252.84587728613587L365.1371761781302,252.75587677944532L365.32182905874834,251.04323315561487L365.37173004789656,250.58056738201958L365.6194798975248,248.2832138873746L366.77516183759326,237.57963298744107L364.2390519542241,233.95336776624026L362.6719946809335,231.70575777633167L360.72444584539517,228.7792915093978L390.92810035654657,202.44625167890445Z" class="counties" stroke="#000" style="stroke-width: 1px; fill: none;"/><path d="M619.775021694837,30.620078928370276L625.0182986995551,61.59089042784399L622.0793406126686,66.8321618517075L618.931621897178,70.94085782300681L614.7854078690998,70.88428764190212L610.4373726070935,80.10511195711479L602.6946028191651,78.70974030957223L600.6860057674476,42.286074809151614L601.992864865595,34.4099118658778L606.1133048714091,30.790116786331055L608.2320299225958,30.76722982724459Z" class="counties" stroke="#000" style="stroke-width: 1px; fill: none;"/><path d="M597.8228338623303,98.70720604032067L617.965049887538,110.54521394575931L628.422712685755,125.31113195535181L606.2194561770084,140.05466872067518L581.9830477065188,164.30933412812192L560.4474773824768,155.8321836091909L552.0298069689707,152.28287940229893L560.9195959131612,118.68219928398139L568.3851014759312,118.82729241047309L571.1615632529138,110.9034504731153L576.0241357198429,112.20523020461405L578.9464006141043,108.62051862057888L582.0764832161567,99.81394668128269L576.4996699766962,97.3337186914523L576.8259936684444,92.20608462080418L583.6002121429228,91.80434899910142Z" class="counties" stroke="#000" style="stroke-width: 1px; fill: none;"/><path d="M627.7065405418289,30.54240185578601L627.8316375554787,30.533081899811805L639.3528131208568,30.58039398839719L639.3952287172942,30.584959416743004L641.3543959889539,30.568616185539213L647.60721238939,30.513262591846797L648.3036824190531,30.506798681732107L649.0005301946476,30.50026003934181L663.3512288730199,30.366519014023652L663.6298667785231,35.29173283709861L662.4869970222007,51.53144828959012L653.1847365062131,74.99177330784914L643.2154413333101,74.19605946942829L635.9097705569384,68.18936502829092L622.0793406126686,66.8321618517075L625.0182986995551,61.59089042784399L619.775021694837,30.620078928370276L621.8212141921758,30.600807539527523Z" class="counties" stroke="#000" style="stroke-width: 1px; fill: none;"/><path d="M790.0325951653558,106.59273600537381L807.0202215255504,106.33736282944301L820.3592177039791,100.76062921338234L823.9742984037566,105.8243692645683L822.5941840088835,109.73893603439501L825.5765983440506,116.59252847005337L820.6926491567501,126.18312813414013L821.9939303704978,138.01782914314936L796.6687312570921,137.65071590974912L775.1524966292236,138.1143311810083L783.248879718185,117.19611116735359Z" class="counties" stroke="#000" style="stroke-width: 1px; fill: none;"/><path d="M270.6198653519623,42.88904065536735L280.1166207230126,48.9810309893619L287.26733338711347,59.398228040410686L296.3328445336956,64.00741116240351L297.48289796400604,70.59661438220064L289.1392950751997,79.84440571287996L261.8590849937409,79.4565367539144L260.1685276398239,71.83106650130503L252.1871169942042,65.40676883513152L253.8122565186477,59.01331769138778L251.35889846364262,55.915565334044004L252.421453473773,53.99434284062772L255.3888921421185,52.58553717738869L255.72152566891418,52.29737488544379L255.9177871669308,51.896903303328145L257.08785028061175,50.501964557990505L257.09927985051763,50.49110294230195L257.6931073488777,49.927812423806245L258.35804818676843,49.6014609902486L258.90146843185175,49.25023304726892L259.35507490326563,48.881634465420575L260.18880475267906,48.39129341238731L261.28634687176054,48.24632255293727L263.5233038937349,47.13069607628131L263.72182277282445,47.14991488986925L264.08900257637106,47.18545070643631L264.5286196403558,47.8486081438532L264.56541039300464,47.93926725661913L264.5943248935,48.01028364636659L264.86429406871866,48.42338680833382L268.2138986332866,50.1025086184527L268.8868274187498,50.091160012401815L269.2333169148369,50.050953322077476L269.74502106654836,49.81340708065545L273.1689693180997,50.128636734840256L273.2428959277604,49.70117828703587L270.6818477910874,42.97682496351263Z" class="counties" stroke="#000" style="stroke-width: 1px; fill: none;"/><path d="M648.759155245667,155.49634331601192L673.8529184228282,156.95650263873176L676.3369548783285,183.3813042761849L673.9663018254123,208.44072321082785L668.0654772400776,212.5110045485344L654.431498423306,206.5211501868598L648.576986786391,209.01413055534795L639.5382426348533,207.21606542716472L630.7724328016884,202.46047505994102L624.5549455985074,194.67096376701556L628.324465986505,189.58067988177027L640.1541518169379,186.2023857803506L639.816636669002,177.43546726713794Z" class="counties" stroke="#000" style="stroke-width: 1px; fill: none;"/><path d="M348.8072908655704,44.74751130261575L358.79431574434966,54.94447910472445L358.23983481849973,66.73616410439536L357.12609420296394,90.39006666437308L342.0138255630209,91.21463951258556L324.1822692687347,91.77649078041395L311.20539201649626,96.5739595710329L302.9309441764144,86.34316172728904L289.1392950751997,79.84440571287996L297.48289796400604,70.59661438220064L296.3328445336956,64.00741116240351L302.9736560265519,57.10099530526713L307.65313051033445,58.6473167024742L308.6766715494359,47.76540204960111L319.7705976904508,48.74595774860245L328.5864129551519,39.31601851021696L330.6811320067791,41.80810325017046L336.9664727178897,40.19827535713921L342.58065346960575,48.1058079637769L347.33822021882224,48.265538430750894Z" class="counties" stroke="#000" style="stroke-width: 1px; fill: none;"/><path d="M672.4873407843988,118.5896212794396L680.574964606265,123.63526359036587L684.1396972307448,136.3272157973406L690.4032710485153,143.15054728531504L686.4090903561246,146.46084035040258L673.8529184228282,156.95650263873176L648.759155245667,155.49634331601192L642.3761152879633,153.23527349199685L638.2904964061472,138.8772668724232L635.1481175759054,136.65460888918278L665.3825783612301,121.66059061648593L670.8784652338727,122.46852170743114Z" class="counties" stroke="#000" style="stroke-width: 1px; fill: none;"/><path d="M401.4259887958942,67.36065792977388L402.6887171050039,80.81007519054583L395.6367758777651,84.85401122354051L396.7809484453046,92.74381995949625L376.5976953549398,91.58709469781024L357.12609420296394,90.39006666437308L358.23983481849973,66.73616410439536L372.1637905581374,61.433728859205075L380.50539039360774,65.41222589271274L383.5418295380732,60.785251930323284L387.0607681318379,63.204718236946064L391.98269692311806,61.441217396706634L393.0384058477521,64.8608342363732L399.6380963835509,64.7992011530896Z" class="counties" stroke="#000" style="stroke-width: 1px; fill: none;"/><path d="M199.79568506076066,81.55464105142346L206.47323232571762,80.38051938893477L207.69748344486288,87.56139663605427L211.62916915738424,85.72623607238529L216.3624773450374,93.38940117525817L216.50676124935308,90.8931210716637L222.09151365199614,90.30798425539615L221.88494315191383,98.48120670749813L226.95203274600135,101.37518816694319L228.18813857398527,115.66293600871177L221.85631307142648,126.97544256316905L213.2728463367148,130.73424550096388L207.2729779048259,124.61455767480402L205.96222627445604,116.24482880896358L199.87510348441538,115.099280289347L196.02676848143346,104.52397274578288L191.3138313077052,102.5448176284408L192.94527069720607,97.43314551721232L190.42462019902632,93.5864829759139L190.9696718741452,92.97275080353938L191.89292450880203,92.2016165073037L192.3074042283024,91.84909998596413L192.5909474821765,91.70415405473614L194.6922908591896,90.01682809947488L195.0955675068035,89.86681101469185L195.25219032727182,89.58990672616164L197.74195676692761,85.18753265303349L199.7686223765977,81.60256575636959Z" class="counties" stroke="#000" style="stroke-width: 1px; fill: none;"/></g></svg>