<?xml version="1.0" encoding="UTF-8"?><svg id="Layer_2" xmlns="http://www.w3.org/2000/svg" viewBox="0 0 365.68 93.5"><defs><style>.cls-1{fill:#4d4d4f;}.cls-1,.cls-2,.cls-3,.cls-4,.cls-5,.cls-6,.cls-7,.cls-8{stroke-width:0px;}.cls-2{fill:#3e93ac;}.cls-3{fill:#318952;}.cls-4{fill:#9c6890;}.cls-5{fill:#a3863b;}.cls-6{fill:#ea9948;}.cls-7{fill:#a9ca53;}.cls-8{fill:#786145;}</style></defs><path class="cls-6" d="m63.96,0c-7.83,0-14.17,6.34-14.17,14.17v18.18h15.32v8.85h11.27c7.85,0,14.21-6.36,14.21-14.21V0h-26.63Z"/><path class="cls-2" d="m30.11,5.58H0v30.07c0,7.79,6.26,14.11,14.03,14.21v-3.29c0-7.85,6.36-14.21,14.21-14.21h16.03v-12.6c0-7.83-6.34-14.17-14.17-14.17"/><path class="cls-4" d="m66.45,54.17h-1.34v15.09c0,7.83-6.34,14.17-14.17,14.17h-9.01c1.76,5.83,7.17,10.07,13.57,10.07h25.16v-25.12c0-7.85-6.36-14.21-14.21-14.21"/><path class="cls-7" d="m49.79,32.35h-5.51v17.5H14.03s0,33.57,0,33.57h27.9c-.39-1.3-.6-2.67-.6-4.1v-25.16h23.78v-12.97h-15.32v-8.85"/><polyline class="cls-5" points="65.11 32.35 49.79 32.35 49.79 41.2 65.11 41.2 65.11 32.35"/><path class="cls-3" d="m44.28,32.35h-16.03c-7.85,0-14.21,6.36-14.21,14.21v3.29h.18s30.07,0,30.07,0v-17.5"/><path class="cls-8" d="m65.11,54.17h-23.78v25.16c0,1.42.21,2.8.6,4.1h9.01c7.83,0,14.17-6.34,14.17-14.17v-15.09"/><path class="cls-1" d="m111.39,10.17h7.88l28.11,37.18-.07-15.54V10.17h8.7v52.05h-7.88l-28.11-37.18.08,16.58v20.6h-8.7V10.17Z"/><path class="cls-1" d="m161.88,36.2c0-15.91,11.23-27.07,27.21-27.07,7.58,0,14.2,2.75,19.41,8.03l-5.8,5.35c-3.57-3.57-7.96-5.43-13.31-5.43-11.08,0-18.74,7.81-18.74,19.11s7.66,19.11,18.74,19.11c5.21,0,10.26-2.01,13.91-5.58l5.58,5.8c-5.21,5.13-11.82,7.73-19.7,7.73-16.14,0-27.29-11.15-27.29-27.07Z"/><path class="cls-1" d="m214.3,10.17h24.83c10.63,0,17.1,5.13,17.1,13.76,0,5.21-2.45,9.29-6.62,11.38,4.68,1.71,8.25,6.92,8.25,12.49,0,9.22-6.77,14.43-18.74,14.43h-24.83V10.17Zm25.13,21.49c5.2,0,8.25-2.53,8.25-6.84s-3.12-6.92-8.25-6.92h-16.51v13.76h16.51Zm.67,22.68c5.65,0,9.15-2.9,9.15-7.66s-3.42-7.51-9.07-7.51h-17.25v15.17h17.18Z"/><path class="cls-1" d="m261.66,36.2c0-16.21,10.78-27.14,26.84-27.14s26.77,10.93,26.77,27.14-10.78,27.14-26.77,27.14-26.84-10.93-26.84-27.14Zm26.84,19.11c10.71,0,17.99-7.73,17.99-19.11s-7.29-19.11-17.99-19.11-18.07,7.73-18.07,19.11,7.29,19.11,18.07,19.11Z"/><path class="cls-1" d="m321.07,10.17h7.88l28.11,37.18-.07-15.54V10.17h8.7v52.05h-7.88l-28.11-37.18.08,16.58v20.6h-8.7V10.17Z"/><path class="cls-2" d="m111.4,71.79h2.31l5.34,7.01v-7.01h2.47v11.39h-2.13l-5.52-7.24v7.24h-2.47v-11.39Z"/><path class="cls-2" d="m127.63,83.38c-.67,0-1.3-.12-1.87-.35-.58-.23-1.07-.55-1.49-.96-.42-.41-.75-.88-.98-1.43-.24-.55-.36-1.14-.36-1.77v-.03c0-.63.12-1.22.36-1.77.24-.55.57-1.03.99-1.44.42-.41.92-.74,1.5-.98.57-.24,1.2-.36,1.89-.36s1.3.12,1.87.35c.57.23,1.07.55,1.49.96.42.41.75.88.98,1.43s.36,1.14.36,1.77v.03c0,.63-.12,1.22-.36,1.77s-.57,1.03-.99,1.44c-.42.41-.92.74-1.5.98-.58.24-1.2.36-1.89.36Zm.03-2.13c.36,0,.68-.06.95-.19.28-.12.51-.3.71-.51.2-.22.34-.47.45-.76.1-.29.16-.59.16-.92v-.03c0-.33-.05-.63-.16-.92s-.27-.54-.47-.77c-.21-.22-.45-.4-.73-.53-.28-.13-.59-.2-.93-.2-.36,0-.68.06-.95.19-.28.12-.51.3-.71.51-.2.22-.34.47-.45.76-.1.29-.15.59-.15.92v.03c0,.33.05.63.16.92.11.29.27.54.47.77.21.22.45.4.72.53.28.13.59.2.94.2Z"/><path class="cls-2" d="m133.5,74.46h2.47v1.76c.25-.6.59-1.07,1.03-1.43.43-.36,1.02-.52,1.76-.49v2.59h-.13c-.82,0-1.47.25-1.94.75-.47.5-.71,1.28-.71,2.33v3.22h-2.47v-8.72Z"/><path class="cls-2" d="m143.58,83.33c-.38,0-.72-.04-1.03-.12-.31-.08-.58-.23-.8-.43s-.4-.47-.52-.81c-.12-.33-.19-.75-.19-1.26v-4.13h-1.04v-2.12h1.04v-2.23h2.47v2.23h2.05v2.12h-2.05v3.74c0,.57.27.85.8.85.43,0,.84-.11,1.22-.33v1.99c-.26.15-.55.27-.86.37-.32.09-.68.14-1.09.14Z"/><path class="cls-2" d="m147.06,71.3h2.47v4.4c.14-.19.29-.36.46-.53.17-.17.35-.32.56-.45.21-.13.43-.23.68-.31.25-.08.53-.11.85-.11.94,0,1.67.29,2.19.86s.77,1.37.77,2.38v5.65h-2.47v-4.85c0-.58-.13-1.03-.39-1.32-.26-.3-.63-.45-1.11-.45s-.85.15-1.13.45c-.28.3-.42.74-.42,1.32v4.85h-2.47v-11.88Z"/><path class="cls-2" d="m167.03,83.38c-.84,0-1.61-.15-2.33-.46-.72-.3-1.33-.72-1.86-1.25-.52-.53-.93-1.15-1.22-1.86s-.44-1.48-.44-2.29v-.03c0-.81.15-1.58.44-2.29.29-.71.7-1.33,1.22-1.87.52-.54,1.14-.96,1.87-1.27.73-.31,1.53-.46,2.41-.46.53,0,1.02.04,1.46.13.44.09.84.21,1.2.36.36.15.69.34.99.55.3.22.59.46.85.72l-1.6,1.84c-.44-.4-.9-.72-1.36-.94-.46-.23-.98-.34-1.55-.34-.48,0-.92.09-1.33.28-.41.18-.76.44-1.05.76-.29.33-.52.7-.68,1.13-.16.43-.24.89-.24,1.38v.03c0,.49.08.95.24,1.38.16.43.39.81.67,1.14.29.33.63.58,1.04.77.41.19.85.29,1.34.29.65,0,1.2-.12,1.65-.36.45-.24.9-.56,1.34-.98l1.59,1.61c-.29.31-.6.6-.91.85-.32.25-.66.46-1.03.64-.37.18-.78.31-1.23.41-.45.09-.94.14-1.5.14Z"/><path class="cls-2" d="m175.59,83.34c-.41,0-.8-.06-1.16-.17-.36-.11-.68-.28-.95-.51-.27-.23-.49-.51-.64-.84-.16-.33-.24-.71-.24-1.15v-.03c0-.48.09-.89.26-1.24.17-.35.42-.63.72-.86.31-.23.68-.4,1.11-.51.43-.11.9-.17,1.42-.17.44,0,.83.03,1.16.1.33.06.65.15.97.26v-.15c0-.52-.16-.92-.47-1.19-.31-.27-.78-.41-1.4-.41-.48,0-.9.04-1.26.12-.36.08-.75.2-1.15.35l-.62-1.89c.48-.21.98-.37,1.5-.5.52-.13,1.15-.2,1.89-.2.68,0,1.27.08,1.75.25.48.17.88.41,1.2.72.33.33.56.72.72,1.2.15.47.23,1,.23,1.59v5.06h-2.39v-.94c-.3.34-.67.6-1.09.81s-.94.3-1.55.3Zm.75-1.71c.59,0,1.06-.14,1.41-.42s.53-.65.53-1.11v-.44c-.22-.1-.46-.18-.72-.24s-.55-.09-.85-.09c-.53,0-.95.1-1.25.31-.3.21-.46.5-.46.9v.03c0,.34.12.6.37.78.25.18.58.28.98.28Z"/><path class="cls-2" d="m182.43,74.46h2.47v1.76c.25-.6.59-1.07,1.03-1.43.43-.36,1.02-.52,1.76-.49v2.59h-.13c-.82,0-1.47.25-1.94.75-.47.5-.71,1.28-.71,2.33v3.22h-2.47v-8.72Z"/><path class="cls-2" d="m192.86,83.38c-.67,0-1.3-.12-1.87-.35-.58-.23-1.07-.55-1.49-.96-.42-.41-.75-.88-.98-1.43-.24-.55-.36-1.14-.36-1.77v-.03c0-.63.12-1.22.36-1.77.24-.55.57-1.03.99-1.44.42-.41.92-.74,1.5-.98.57-.24,1.2-.36,1.89-.36s1.3.12,1.87.35c.57.23,1.07.55,1.49.96.42.41.75.88.98,1.43s.36,1.14.36,1.77v.03c0,.63-.12,1.22-.36,1.77s-.57,1.03-.99,1.44c-.42.41-.92.74-1.5.98-.58.24-1.2.36-1.89.36Zm.03-2.13c.36,0,.68-.06.95-.19.28-.12.51-.3.71-.51.2-.22.34-.47.45-.76.1-.29.16-.59.16-.92v-.03c0-.33-.05-.63-.16-.92s-.27-.54-.47-.77c-.21-.22-.45-.4-.73-.53-.28-.13-.59-.2-.93-.2-.36,0-.68.06-.95.19-.28.12-.51.3-.71.51-.2.22-.34.47-.45.76-.1.29-.15.59-.15.92v.03c0,.33.05.63.16.92.11.29.27.54.47.77.21.22.45.4.72.53.28.13.59.2.94.2Z"/><path class="cls-2" d="m198.85,71.3h2.47v11.88h-2.47v-11.88Z"/><path class="cls-2" d="m203.37,71.3h2.6v2.2h-2.6v-2.2Zm.07,3.16h2.47v8.72h-2.47v-8.72Z"/><path class="cls-2" d="m207.91,74.46h2.47v1.25c.14-.19.29-.36.46-.53.17-.17.35-.32.56-.45.21-.13.43-.23.68-.31.25-.08.53-.11.85-.11.94,0,1.67.29,2.19.86s.77,1.37.77,2.38v5.65h-2.47v-4.85c0-.58-.13-1.03-.39-1.32-.26-.3-.63-.45-1.11-.45s-.85.15-1.13.45c-.28.3-.42.74-.42,1.32v4.85h-2.47v-8.72Z"/><path class="cls-2" d="m220.2,83.34c-.41,0-.8-.06-1.16-.17-.36-.11-.68-.28-.95-.51-.27-.23-.49-.51-.64-.84-.16-.33-.24-.71-.24-1.15v-.03c0-.48.09-.89.26-1.24.17-.35.42-.63.72-.86.31-.23.68-.4,1.11-.51.43-.11.9-.17,1.42-.17.44,0,.83.03,1.16.1.33.06.65.15.97.26v-.15c0-.52-.16-.92-.47-1.19-.31-.27-.78-.41-1.4-.41-.48,0-.9.04-1.26.12-.36.08-.75.2-1.15.35l-.62-1.89c.48-.21.98-.37,1.5-.5.52-.13,1.15-.2,1.89-.2.68,0,1.27.08,1.75.25.48.17.88.41,1.2.72.33.33.56.72.72,1.2.15.47.23,1,.23,1.59v5.06h-2.39v-.94c-.3.34-.67.6-1.09.81s-.94.3-1.55.3Zm.75-1.71c.59,0,1.06-.14,1.41-.42s.53-.65.53-1.11v-.44c-.22-.1-.46-.18-.72-.24s-.55-.09-.85-.09c-.53,0-.95.1-1.25.31-.3.21-.46.5-.46.9v.03c0,.34.12.6.37.78.25.18.58.28.98.28Z"/><path class="cls-2" d="m231.86,71.79h5.28c1.31,0,2.3.34,2.97,1.01.52.52.78,1.17.78,1.94v.03c0,.33-.04.61-.12.86-.08.25-.19.48-.32.68s-.29.38-.47.53c-.18.15-.37.28-.57.39.66.25,1.18.59,1.55,1.02.38.43.57,1.02.57,1.78v.03c0,.52-.1.98-.3,1.37s-.49.72-.86.98-.82.46-1.35.59-1.11.2-1.75.2h-5.41v-11.39Zm4.75,4.61c.55,0,.99-.09,1.32-.28.33-.19.49-.5.49-.92v-.03c0-.38-.14-.67-.42-.87-.28-.2-.69-.3-1.22-.3h-2.47v2.41h2.31Zm.67,4.59c.55,0,.99-.1,1.3-.3.32-.2.47-.51.47-.94v-.03c0-.38-.15-.68-.44-.9-.29-.22-.77-.33-1.42-.33h-2.9v2.51h2.98Z"/><path class="cls-2" d="m247.3,83.38c-.67,0-1.3-.12-1.87-.35-.58-.23-1.07-.55-1.49-.96-.42-.41-.75-.88-.98-1.43-.24-.55-.36-1.14-.36-1.77v-.03c0-.63.12-1.22.36-1.77.24-.55.57-1.03.99-1.44.42-.41.92-.74,1.5-.98.57-.24,1.2-.36,1.89-.36s1.3.12,1.87.35c.57.23,1.07.55,1.49.96.42.41.75.88.98,1.43s.36,1.14.36,1.77v.03c0,.63-.12,1.22-.36,1.77s-.57,1.03-.99,1.44c-.42.41-.92.74-1.5.98-.58.24-1.2.36-1.89.36Zm.03-2.13c.36,0,.68-.06.95-.19.28-.12.51-.3.71-.51.2-.22.34-.47.45-.76.1-.29.16-.59.16-.92v-.03c0-.33-.05-.63-.16-.92s-.27-.54-.47-.77c-.21-.22-.45-.4-.73-.53-.28-.13-.59-.2-.93-.2-.36,0-.68.06-.95.19-.28.12-.51.3-.71.51-.2.22-.34.47-.45.76-.1.29-.15.59-.15.92v.03c0,.33.05.63.16.92.11.29.27.54.47.77.21.22.45.4.72.53.28.13.59.2.94.2Z"/><path class="cls-2" d="m255.98,83.34c-.41,0-.8-.06-1.16-.17-.36-.11-.68-.28-.95-.51-.27-.23-.49-.51-.64-.84-.16-.33-.24-.71-.24-1.15v-.03c0-.48.09-.89.26-1.24.17-.35.42-.63.72-.86.31-.23.68-.4,1.11-.51.43-.11.9-.17,1.42-.17.44,0,.83.03,1.16.1.33.06.65.15.97.26v-.15c0-.52-.16-.92-.47-1.19-.31-.27-.78-.41-1.4-.41-.48,0-.9.04-1.26.12-.36.08-.75.2-1.15.35l-.62-1.89c.48-.21.98-.37,1.5-.5.52-.13,1.15-.2,1.89-.2.68,0,1.27.08,1.75.25.48.17.88.41,1.2.72.33.33.56.72.72,1.2.15.47.23,1,.23,1.59v5.06h-2.39v-.94c-.3.34-.67.6-1.09.81s-.94.3-1.55.3Zm.75-1.71c.59,0,1.06-.14,1.41-.42s.53-.65.53-1.11v-.44c-.22-.1-.46-.18-.72-.24s-.55-.09-.85-.09c-.53,0-.95.1-1.25.31-.3.21-.46.5-.46.9v.03c0,.34.12.6.37.78.25.18.58.28.98.28Z"/><path class="cls-2" d="m262.81,74.46h2.47v1.76c.25-.6.59-1.07,1.03-1.43.43-.36,1.02-.52,1.76-.49v2.59h-.13c-.82,0-1.47.25-1.94.75-.47.5-.71,1.28-.71,2.33v3.22h-2.47v-8.72Z"/><path class="cls-2" d="m272.87,83.34c-.51,0-1-.1-1.48-.29s-.9-.49-1.27-.87-.66-.86-.89-1.42c-.22-.56-.33-1.2-.33-1.93v-.03c0-.73.11-1.37.33-1.93.22-.56.52-1.03.88-1.42.36-.38.78-.68,1.26-.87.48-.2.98-.29,1.5-.29.66,0,1.21.13,1.64.39s.79.56,1.08.91v-4.3h2.47v11.88h-2.47v-1.25c-.3.41-.67.75-1.1,1.02-.43.27-.97.4-1.62.4Zm.63-2.1c.29,0,.57-.06.82-.17.25-.11.48-.28.67-.49.19-.21.34-.47.46-.76.11-.3.17-.63.17-.98v-.03c0-.36-.06-.69-.17-.98-.11-.3-.27-.55-.46-.77-.19-.21-.41-.37-.67-.49-.26-.11-.53-.17-.82-.17s-.57.06-.82.17-.48.28-.67.49-.35.46-.46.76c-.11.29-.17.62-.17.99v.03c0,.36.06.69.17.98.11.3.27.55.46.76.2.21.42.37.67.49.25.11.53.17.82.17Z"/><path class="cls-2" d="m288.79,83.38c-.67,0-1.3-.12-1.87-.35-.58-.23-1.07-.55-1.49-.96-.42-.41-.75-.88-.98-1.43-.24-.55-.36-1.14-.36-1.77v-.03c0-.63.12-1.22.36-1.77.24-.55.57-1.03.99-1.44.42-.41.92-.74,1.5-.98.57-.24,1.2-.36,1.89-.36s1.3.12,1.87.35c.57.23,1.07.55,1.49.96.42.41.75.88.98,1.43s.36,1.14.36,1.77v.03c0,.63-.12,1.22-.36,1.77s-.57,1.03-.99,1.44c-.42.41-.92.74-1.5.98-.58.24-1.2.36-1.89.36Zm.03-2.13c.36,0,.68-.06.95-.19.28-.12.51-.3.71-.51.2-.22.34-.47.45-.76.1-.29.16-.59.16-.92v-.03c0-.33-.05-.63-.16-.92s-.27-.54-.47-.77c-.21-.22-.45-.4-.73-.53-.28-.13-.59-.2-.93-.2-.36,0-.68.06-.95.19-.28.12-.51.3-.71.51-.2.22-.34.47-.45.76-.1.29-.15.59-.15.92v.03c0,.33.05.63.16.92.11.29.27.54.47.77.21.22.45.4.72.53.28.13.59.2.94.2Z"/><path class="cls-2" d="m295.41,76.57h-1.03v-2.03h1.03v-.55c0-.94.23-1.65.7-2.12.46-.46,1.12-.68,2-.68.39,0,.72.02,1,.07.28.04.53.1.76.18v2.05c-.18-.06-.36-.12-.54-.15s-.37-.06-.59-.06c-.6,0-.89.31-.89.94v.34h2v2.02h-1.97v6.61h-2.47v-6.61Z"/><path class="cls-2" d="m305.7,71.79h2.31l5.34,7.01v-7.01h2.47v11.39h-2.13l-5.52-7.24v7.24h-2.47v-11.39Z"/><path class="cls-2" d="m320.87,83.34c-.94,0-1.67-.29-2.19-.86s-.77-1.37-.77-2.38v-5.65h2.47v4.85c0,.58.13,1.03.39,1.32s.63.45,1.11.45.85-.15,1.13-.45c.28-.3.42-.74.42-1.32v-4.85h2.47v8.72h-2.47v-1.25c-.14.19-.3.36-.46.53-.17.17-.36.32-.56.45-.21.13-.43.24-.68.31-.25.08-.53.11-.85.11Z"/><path class="cls-2" d="m327.78,74.46h2.47v1.76c.25-.6.59-1.07,1.03-1.43.43-.36,1.02-.52,1.76-.49v2.59h-.13c-.82,0-1.47.25-1.94.75-.47.5-.71,1.28-.71,2.33v3.22h-2.47v-8.72Z"/><path class="cls-2" d="m337.65,83.34c-.62,0-1.25-.11-1.9-.32-.65-.21-1.26-.54-1.85-1l1.06-1.63c.48.35.95.61,1.42.78.47.17.91.26,1.33.26.36,0,.62-.06.79-.18.17-.12.25-.28.25-.47v-.03c0-.13-.05-.24-.15-.34s-.23-.18-.4-.25c-.17-.07-.36-.14-.58-.2s-.45-.14-.68-.21c-.3-.09-.61-.19-.92-.32-.31-.12-.59-.29-.84-.49-.25-.2-.45-.45-.61-.74s-.24-.65-.24-1.07v-.03c0-.44.08-.84.25-1.18.17-.34.4-.63.68-.87.29-.24.62-.42,1.01-.54.38-.12.8-.18,1.25-.18.55,0,1.12.09,1.68.27.57.18,1.09.43,1.57.74l-.94,1.71c-.43-.25-.86-.45-1.27-.59-.41-.15-.78-.22-1.09-.22s-.53.06-.68.17c-.15.11-.23.26-.23.43v.03c0,.12.05.23.15.32s.23.18.39.26c.16.08.35.16.56.24.21.08.44.15.67.23.3.1.61.21.93.35s.6.3.85.5c.25.2.46.43.62.72.16.28.24.62.24,1.03v.03c0,.49-.08.91-.25,1.26s-.4.64-.71.87c-.3.23-.66.4-1.07.51-.41.11-.84.17-1.31.17Z"/><path class="cls-2" d="m342.48,71.3h2.6v2.2h-2.6v-2.2Zm.07,3.16h2.47v8.72h-2.47v-8.72Z"/><path class="cls-2" d="m347.02,74.46h2.47v1.25c.14-.19.29-.36.46-.53.17-.17.35-.32.56-.45.21-.13.43-.23.68-.31.25-.08.53-.11.85-.11.94,0,1.67.29,2.19.86s.77,1.37.77,2.38v5.65h-2.47v-4.85c0-.58-.13-1.03-.39-1.32-.26-.3-.63-.45-1.11-.45s-.85.15-1.13.45c-.28.3-.42.74-.42,1.32v4.85h-2.47v-8.72Z"/><path class="cls-2" d="m360.74,85.82c-.72,0-1.4-.08-2.05-.24-.65-.16-1.25-.38-1.81-.68l.85-1.86c.46.25.91.44,1.38.59s.99.21,1.57.21c.85,0,1.47-.2,1.88-.6.41-.4.61-.99.61-1.77v-.42c-.37.45-.77.79-1.21,1.04-.43.25-.98.37-1.64.37-.51,0-1-.09-1.46-.27-.47-.18-.88-.44-1.24-.79-.36-.35-.64-.77-.85-1.28-.21-.5-.32-1.08-.32-1.73v-.03c0-.65.11-1.23.33-1.73.22-.5.5-.93.86-1.28s.77-.61,1.24-.79c.47-.18.95-.27,1.45-.27.67,0,1.23.12,1.66.37.43.25.82.56,1.16.93v-1.14h2.47v6.75c0,1.55-.37,2.7-1.11,3.43-.41.41-.93.71-1.55.9-.62.18-1.36.28-2.21.28Zm.29-5.4c.3,0,.59-.05.85-.15s.49-.24.68-.42c.19-.18.34-.39.45-.64s.16-.52.16-.81v-.03c0-.29-.05-.56-.16-.81s-.26-.46-.45-.64c-.19-.18-.42-.32-.68-.42s-.54-.15-.85-.15-.58.05-.84.15-.48.24-.67.42c-.19.18-.34.39-.45.64s-.16.52-.16.81v.03c0,.61.2,1.1.6,1.46.4.37.91.55,1.51.55Z"/></svg>